<?xml version="1.0" encoding="utf-8"?>
<!-- Generator: Adobe Illustrator 16.0.0, SVG Export Plug-In . SVG Version: 6.00 Build 0)  -->
<!DOCTYPE svg PUBLIC "-//W3C//DTD SVG 1.1//EN" "http://www.w3.org/Graphics/SVG/1.1/DTD/svg11.dtd">
<svg version="1.1" id="Capa_1" xmlns="http://www.w3.org/2000/svg" xmlns:xlink="http://www.w3.org/1999/xlink" x="0px" y="0px"
	 width="342.818px" height="475px" viewBox="0 0 342.818 475" enable-background="new 0 0 342.818 475" xml:space="preserve">
<g>
	<g>
		<polygon fill="none" stroke="#FFFFFF" stroke-width="2" stroke-miterlimit="10" points="319.873,269 23.873,269 175.519,455.5 		
			"/>
		<polygon fill="#FD2E2E" points="15.373,276 327.373,276 165.732,24.953 		"/>
		<polygon fill="#900D0D" points="281.373,276 86.373,276 187.873,419.206 		"/>
		<polygon fill="#CF1B1B" points="259.373,276 64.373,276 165.873,419.206 		"/>
	</g>
	<g>
		<g>
			<g>
				<g>
					<path fill="#471111" d="M141.363,233.498c0,0,0.951-1.472-0.781-2.856c0,0,2.877-2.923,5.567-2.252
						c0,0,2.208-0.088,1.712,1.776l-1.02,3.032"/>
					<g>
						<path fill="#471111" d="M287.578,208.207H116.42c-1.569,0-2.682,0.192-3.338,0.573c-0.668,0.38-1.216,1.153-1.644,2.311
							l-0.311,0.787l-5.373,13.516h-5.172c-0.5,0-0.967,0.081-1.417,0.202c-2.51,0.125-5.049,0.568-7.618,1.371
							c-3.052,0.952-5.731,2.238-8.019,3.861c-2.711,1.945-4.814,4.26-6.317,6.943c-1.501,2.692-2.25,5.512-2.25,8.457
							c0,3.792,1.263,6.928,3.803,9.421c2.544,2.491,5.74,3.735,9.604,3.735c1.559,0,3.045-0.217,4.443-0.632l-3.685,9.074H78.535
							c-3.781,0-6.769,0.636-8.979,1.91c-1.696,0.991-3.042,2.382-4.037,4.172c-0.989,1.787-1.479,3.724-1.479,5.806
							c0,3.257,1.158,5.934,3.468,8.041c2.318,2.103,5.242,3.152,8.78,3.152c4.33,0,8.182-1.549,11.56-4.645
							c1.278-1.171,2.311-2.401,3.125-3.691c0.806-1.297,1.92-3.515,3.336-6.649l0.365-0.85h4.459c6.806,0,11.91-1.089,15.286-3.273
							c2.51-1.623,4.525-3.775,6.051-6.473c1.521-2.701,2.287-5.458,2.287-8.271c0-4.382-1.848-7.479-5.55-9.279
							c2.733-0.945,4.909-2.537,6.538-4.764c0.793-1.091,1.369-2.264,1.761-3.492c0.168,1.882,0.755,3.467,1.821,4.708
							c1.256,1.465,2.913,2.193,4.972,2.193h2.884l-5.987,14.726c-0.539,1.345-0.813,2.306-0.813,2.884
							c0,1.099,0.406,1.977,1.208,2.628c0.801,0.656,1.892,0.979,3.279,0.979h5.036c1.497,0,2.655-0.313,3.486-0.946
							c0.828-0.642,1.241-1.522,1.241-2.661c0-1.662-1.182-2.493-3.552-2.493h-2.94l6.168-15.169
							c0.172,0.014,0.324,0.053,0.511,0.053h3.583c1.471,0,2.635-0.32,3.472-0.963c0.839-0.645,1.258-1.539,1.258-2.677
							c0-1.64-1.169-2.461-3.521-2.461h-2.844l2.262-5.578l0.312-0.752c0.226-0.571,0.336-1.083,0.38-1.559l0.836-2.077l0.315-0.759
							c0.293-0.728,0.445-1.353,0.445-1.875c0-0.765-0.279-1.41-0.829-1.935c-0.548-0.519-1.236-0.784-2.056-0.784
							c-1.51,0-2.737,0.702-3.669,2.105c-1.095-1.663-2.844-2.494-5.233-2.494c-3.116,0-5.912,1.414-8.39,4.241
							c-1.987,2.271-3.155,4.794-3.545,7.554h-7.37c-0.008,0.904-0.263,1.881-0.762,2.938c-0.517,1.091-1.155,1.979-1.927,2.67
							c-1.457,1.312-3.6,1.968-6.431,1.968l-1.819,0.029l4.644-11.375h0.453c0.208,0,0.371,0.011,0.568,0.014
							c0.188-0.189,0.373-0.38,0.563-0.565h2.067h0.728c1.249,0,2.296-0.387,3.146-1.159c0.853-0.778,1.277-1.725,1.277-2.845
							c0-1.792-1.048-2.686-3.14-2.686h-0.729h-2.974c-0.063,0-0.117-0.006-0.171-0.006h-0.463l4.282-10.498h45.495l-10.61,26.154
							l-0.305,0.753c-0.303,0.73-0.448,1.375-0.448,1.933c0,0.749,0.275,1.385,0.835,1.906c0.26,0.248,0.556,0.425,0.875,0.557
							c-2.087,0.58-4.01,1.86-5.777,3.875c-2.467,2.829-3.704,6.038-3.704,9.616c0,2.368,0.631,4.29,1.888,5.753
							c1.259,1.469,2.909,2.197,4.972,2.197h3.189c1.307,0,2.656-0.622,4.058-1.874c0.581,1.252,1.674,1.874,3.276,1.874h3.583
							c1.477,0,2.631-0.323,3.471-0.966c0.843-0.639,1.259-1.53,1.259-2.672c0-1.639-1.168-2.463-3.525-2.463h-3.078l4.03-9.969
							l0.308-0.756c0.298-0.727,0.45-1.354,0.45-1.876c0-0.766-0.281-1.407-0.827-1.931c-0.296-0.282-0.637-0.479-1.008-0.61
							c1.342-0.064,2.641-0.528,3.891-1.429c3.849-2.779,5.769-6.662,5.769-11.648c0-2.575-0.671-4.668-2.009-6.283
							c-1.351-1.612-3.106-2.422-5.271-2.422c-0.648,0-1.399,0.131-2.234,0.389l4.112-10.108h116.09h0.758
							c1.229,0,2.271-0.384,3.137-1.16c0.855-0.771,1.29-1.701,1.29-2.783C291.478,209.12,290.18,208.207,287.578,208.207z
							 M82.022,281.188c-1.657,1.462-3.408,2.197-5.248,2.197c-1.23,0-2.277-0.395-3.14-1.185c-0.863-0.787-1.283-1.747-1.283-2.879
							c0-2.833,1.983-4.249,5.94-4.249h7.889C85.071,277.683,83.686,279.715,82.022,281.188z M133.977,232.651
							c1.287-1.588,2.614-2.381,3.977-2.381c0.688,0,1.282,0.188,1.77,0.558c0.503,0.376,0.748,0.813,0.748,1.319
							c0,0.428-0.13,0.959-0.389,1.595l-1.962,4.843c-0.502,1.252-1.522,1.879-3.054,1.879h-0.696c-1.555,0-2.325-0.959-2.325-2.883
							C132.045,235.881,132.691,234.235,133.977,232.651z M88.843,252.137c-1.732,0-3.186-0.646-4.35-1.935
							c-1.169-1.284-1.75-2.88-1.75-4.785c0-3.544,1.841-6.729,5.542-9.547c2.443-1.861,5.489-3.033,9.145-3.516
							c0.481,0.187,1.059,0.286,1.761,0.286h3.625l-4.034,9.893C96.185,248.937,92.877,252.137,88.843,252.137z M113.036,252.479
							c1.185,0.812,1.774,2.206,1.774,4.187c0,1.678-0.45,3.347-1.348,5.003c-0.898,1.657-2.07,2.961-3.506,3.915
							c-2.24,1.496-5.529,2.244-9.854,2.244h-2.457l6.702-16.56h2.515C109.793,251.268,111.851,251.671,113.036,252.479z
							 M158.541,254.959l-1.961,4.848c-0.501,1.251-1.52,1.875-3.047,1.875h-0.704c-1.543,0-2.321-0.962-2.321-2.885
							c0-1.702,0.64-3.34,1.93-4.929c1.289-1.586,2.616-2.38,3.978-2.38c0.687,0,1.284,0.186,1.78,0.559
							c0.495,0.374,0.74,0.813,0.74,1.315C158.935,253.794,158.8,254.326,158.541,254.959z M161.23,248.326
							c-0.976-1.471-2.483-2.248-4.466-2.421c0.601-0.333,1.098-0.815,1.484-1.472c1.307,1.331,2.883,1.989,4.734,1.989h0.667
							C162.699,246.712,161.892,247.332,161.23,248.326z M166.647,230.154c0.784,0,1.417,0.273,1.899,0.802
							c0.486,0.529,0.734,1.217,0.734,2.056c0,1.085-0.321,2.307-0.969,3.669c-0.643,1.36-1.393,2.391-2.248,3.078
							c-0.616,0.503-1.376,0.757-2.271,0.757c-1.255,0-2.34-0.598-3.271-1.791l1.876-4.625
							C163.452,231.476,164.873,230.154,166.647,230.154z"/>
						<path fill="#471111" d="M191.331,222.724c0.753-0.758,1.134-1.674,1.134-2.757s-0.381-2.002-1.134-2.756
							c-0.758-0.756-1.683-1.134-2.761-1.134c-1.084,0-2,0.378-2.76,1.134c-0.754,0.754-1.135,1.673-1.135,2.756
							s0.381,1.999,1.135,2.757c0.76,0.758,1.676,1.137,2.76,1.137C189.648,223.86,190.573,223.481,191.331,222.724z"/>
						<path fill="#471111" d="M196.44,245.332c1.065,0.73,3.116,1.091,6.157,1.091c1.865,0,3.316-0.143,4.354-0.433
							c1.039-0.292,2.037-0.816,3.012-1.581c1.457-1.176,2.641-2.746,3.555-4.717c0.913-1.975,1.367-3.952,1.367-5.95
							c0-2.651-0.867-4.835-2.61-6.551c-1.749-1.719-3.979-2.576-6.682-2.576c-3.493,0-6.517,1.298-9.075,3.89
							c-2.554,2.596-3.835,5.671-3.835,9.213C192.683,241.077,193.943,243.615,196.44,245.332z M201.139,232.622
							c1.145-1.361,2.402-2.046,3.779-2.046c0.994,0,1.797,0.329,2.409,0.984c0.62,0.648,0.923,1.508,0.923,2.572
							c0,1.85-0.631,3.491-1.902,4.927c-0.764,0.88-1.858,1.32-3.271,1.32c-2.432,0-3.641-1.087-3.641-3.248
							C199.436,235.487,200.003,233.983,201.139,232.622z"/>
						<path fill="#471111" d="M194.769,261.539h-3.362l3.053-7.532c0.411-1.026,0.617-1.967,0.617-2.825
							c0-1.548-0.566-2.83-1.708-3.837c-0.99-0.881-2.249-1.354-3.72-1.464c0.242-0.116,0.469-0.25,0.671-0.406
							c0.837-0.639,1.25-1.526,1.25-2.66c0-1.661-1.183-2.492-3.532-2.492h-3.164l4.004-9.913c0.504-1.231,0.76-2.144,0.76-2.742
							c0-0.73-0.29-1.354-0.854-1.879c-0.565-0.519-1.247-0.784-2.033-0.784c-1.902,0-3.284,1.058-4.142,3.167l-0.313,0.788
							l-4.611,11.363c-0.394,0.951-0.595,1.732-0.595,2.353c0,1.155,0.471,2.067,1.417,2.742c0.644,0.452,1.461,0.744,2.418,0.891
							c-0.216-0.036-0.438-0.079-0.688-0.079c-1.751,0-2.992,0.902-3.719,2.71l-5.659,13.941l-0.307,0.763
							c-0.301,0.726-0.443,1.351-0.443,1.867c0,0.713,0.277,1.309,0.835,1.795c0.558,0.485,1.246,0.729,2.047,0.729
							c1.962,0,3.427-1.234,4.423-3.693l3.305-8.121c1.175-2.893,2.724-4.342,4.646-4.342c0.597,0,1.086,0.162,1.473,0.48
							c0.383,0.316,0.563,0.699,0.541,1.146c-0.019,0.394-0.156,0.905-0.425,1.54l-2.462,6.104c-0.523,1.269-0.778,2.22-0.778,2.854
							c0,1.048,0.384,1.916,1.161,2.606c0.771,0.692,1.731,1.031,2.869,1.031h5.849c1.476,0,2.629-0.313,3.475-0.946
							c0.835-0.642,1.259-1.522,1.259-2.661C198.324,262.37,197.14,261.539,194.769,261.539z M183.316,248.129
							c-0.452-0.936-1.137-1.521-2.032-1.763c0.347,0.04,0.711,0.057,1.1,0.057h3.825
							C185.269,246.805,184.305,247.372,183.316,248.129z"/>
						<path fill="#471111" d="M216.581,261.539h-5.293c-1.946,0-3.321-0.278-4.131-0.829c-0.815-0.544-1.218-1.484-1.218-2.811
							c0-1.586,0.502-3.024,1.497-4.311c1.002-1.29,2.105-1.931,3.321-1.931c1.289,0,1.929,0.648,1.929,1.957
							c0,0.184-0.01,0.382-0.026,0.586c0,0.172,0,0.379,0,0.619c0,1.605,0.857,2.404,2.576,2.404c1.078,0,1.969-0.44,2.658-1.328
							c0.691-0.886,1.042-2.02,1.042-3.404c0-1.976-0.692-3.579-2.079-4.813c-1.381-1.233-3.178-1.846-5.375-1.846
							c-3.244,0-6.076,1.284-8.48,3.864c-2.411,2.572-3.612,5.607-3.612,9.1c0,2.609,0.735,4.742,2.194,6.384
							c1.474,1.638,3.369,2.459,5.7,2.459h8.122c1.451,0,2.607-0.323,3.456-0.966c0.847-0.639,1.275-1.526,1.275-2.642
							C220.138,262.37,218.943,261.539,216.581,261.539z"/>
						<path fill="#471111" d="M234.136,245.833c-3.491,0-6.513,1.298-9.072,3.893c-2.552,2.593-3.841,5.665-3.841,9.211
							c0,3.359,1.252,5.897,3.76,7.614c1.057,0.728,3.113,1.089,6.156,1.089c1.864,0,3.318-0.142,4.349-0.432
							c1.038-0.288,2.043-0.819,3.019-1.58c1.455-1.179,2.636-2.75,3.55-4.722c0.919-1.965,1.376-3.948,1.376-5.947
							c0-2.652-0.874-4.837-2.621-6.552C239.066,246.692,236.842,245.833,234.136,245.833z M234.888,260.28
							c-0.764,0.875-1.854,1.313-3.277,1.313c-2.419,0-3.636-1.081-3.636-3.245c0-1.642,0.566-3.142,1.709-4.506
							c1.139-1.364,2.398-2.047,3.781-2.047c0.986,0,1.787,0.326,2.408,0.98c0.613,0.655,0.917,1.511,0.917,2.577
							C236.79,257.197,236.162,258.846,234.888,260.28z"/>
					</g>
				</g>
			</g>
			<rect x="20.087" y="268.034" fill="#471111" width="55.038" height="7.428"/>
			<circle fill="#471111" cx="20.087" cy="271.639" r="3.714"/>
		</g>
		<g>
			<path fill="#FFFFFF" d="M140.057,226.572c0,0,0.948-1.474-0.78-2.861c0,0,2.882-2.921,5.565-2.253c0,0,2.208-0.086,1.714,1.777
				l-1.022,3.032"/>
			<g>
				<path fill="#FFFFFF" d="M287.124,201.275H115.112c-1.567,0-2.681,0.194-3.341,0.58c-0.665,0.376-1.211,1.15-1.643,2.306
					l-0.304,0.786l-5.373,13.518h-5.175c-0.504,0-0.97,0.08-1.417,0.198c-2.505,0.128-5.051,0.571-7.622,1.373
					c-3.048,0.95-5.719,2.241-8.021,3.862c-2.7,1.948-4.807,4.259-6.313,6.944c-1.501,2.692-2.251,5.508-2.251,8.457
					c0,3.792,1.267,6.927,3.808,9.418c2.539,2.492,5.74,3.738,9.606,3.738c1.563,0,3.039-0.219,4.446-0.633l-3.692,9.077H77.225
					c-3.774,0-6.768,0.632-8.974,1.91c-1.696,0.99-3.042,2.379-4.035,4.172c-0.992,1.787-1.481,3.719-1.481,5.807
					c0,3.256,1.155,5.93,3.471,8.037c2.311,2.102,5.237,3.154,8.775,3.154c4.332,0,8.186-1.551,11.558-4.645
					c1.279-1.172,2.313-2.404,3.122-3.695c0.812-1.295,1.923-3.511,3.338-6.648l0.368-0.847h4.456c6.811,0,11.91-1.091,15.29-3.274
					c2.507-1.617,4.524-3.781,6.046-6.475c1.529-2.702,2.291-5.456,2.291-8.268c0-4.384-1.843-7.48-5.549-9.283
					c2.732-0.945,4.91-2.535,6.535-4.763c0.8-1.089,1.374-2.261,1.773-3.489c0.164,1.883,0.744,3.468,1.812,4.707
					c1.261,1.463,2.917,2.191,4.971,2.191h2.889l-5.991,14.725c-0.537,1.342-0.811,2.307-0.811,2.883
					c0,1.104,0.405,1.98,1.203,2.632c0.805,0.657,1.901,0.979,3.284,0.979h5.039c1.491,0,2.654-0.313,3.483-0.946
					c0.827-0.641,1.247-1.524,1.247-2.664c0-1.659-1.188-2.491-3.561-2.491h-2.936l6.164-15.168c0.174,0.013,0.33,0.052,0.516,0.052
					h3.589c1.469,0,2.626-0.32,3.464-0.963c0.838-0.643,1.258-1.538,1.258-2.674c0-1.645-1.17-2.463-3.528-2.463h-2.84l2.272-5.575
					l0.301-0.755c0.229-0.572,0.336-1.081,0.382-1.557l0.839-2.08l0.309-0.755c0.31-0.729,0.449-1.354,0.449-1.88
					c0-0.762-0.279-1.407-0.826-1.93c-0.549-0.524-1.243-0.787-2.059-0.787c-1.511,0-2.736,0.701-3.667,2.104
					c-1.099-1.66-2.847-2.493-5.237-2.493c-3.118,0-5.912,1.414-8.39,4.243c-1.986,2.274-3.155,4.793-3.544,7.551h-7.36
					c-0.02,0.904-0.273,1.884-0.77,2.938c-0.514,1.094-1.158,1.981-1.927,2.672c-1.457,1.313-3.602,1.969-6.429,1.969l-1.819,0.032
					l4.642-11.376h0.453c0.206,0,0.377,0.008,0.568,0.013c0.19-0.193,0.374-0.379,0.561-0.563h2.069h0.724
					c1.256,0,2.303-0.392,3.147-1.163c0.856-0.775,1.277-1.722,1.277-2.845c0-1.789-1.043-2.684-3.134-2.684h-0.732h-2.975
					c-0.06,0-0.119-0.006-0.169-0.006h-0.463l4.283-10.497h45.49l-10.608,26.152l-0.306,0.751c-0.305,0.731-0.444,1.379-0.444,1.934
					c0,0.751,0.276,1.387,0.835,1.908c0.263,0.246,0.556,0.426,0.875,0.557c-2.09,0.58-4.017,1.857-5.778,3.874
					c-2.469,2.827-3.706,6.036-3.706,9.618c0,2.372,0.629,4.288,1.889,5.751c1.256,1.468,2.914,2.197,4.969,2.197h3.196
					c1.297,0,2.653-0.621,4.057-1.873c0.578,1.252,1.67,1.873,3.272,1.873h3.583c1.477,0,2.629-0.321,3.474-0.967
					c0.841-0.637,1.264-1.528,1.264-2.669c0-1.641-1.176-2.466-3.53-2.466h-3.076l4.025-9.966l0.313-0.759
					c0.299-0.723,0.447-1.351,0.447-1.872c0-0.768-0.279-1.411-0.825-1.933c-0.301-0.282-0.641-0.48-1.011-0.61
					c1.344-0.067,2.64-0.527,3.895-1.428c3.846-2.782,5.768-6.663,5.768-11.649c0-2.575-0.677-4.67-2.016-6.286
					c-1.345-1.611-3.104-2.421-5.267-2.421c-0.65,0-1.396,0.13-2.239,0.39l4.113-10.106h116.944h0.758
					c1.233,0,2.274-0.384,3.144-1.161c0.858-0.772,1.281-1.703,1.281-2.788C291.021,202.192,289.723,201.275,287.124,201.275z
					 M80.714,274.257c-1.654,1.464-3.398,2.199-5.244,2.199c-1.234,0-2.279-0.394-3.137-1.182c-0.867-0.791-1.288-1.749-1.288-2.884
					c0-2.831,1.981-4.245,5.943-4.245h7.886C83.762,270.751,82.377,272.789,80.714,274.257z M132.668,225.721
					c1.289-1.585,2.616-2.38,3.981-2.38c0.686,0,1.282,0.186,1.773,0.558c0.5,0.377,0.745,0.813,0.745,1.32
					c0,0.428-0.132,0.96-0.393,1.594l-1.962,4.844c-0.503,1.252-1.521,1.879-3.051,1.879h-0.697c-1.549,0-2.324-0.962-2.324-2.884
					C130.739,228.954,131.381,227.307,132.668,225.721z M87.541,245.205c-1.734,0-3.191-0.642-4.355-1.931
					c-1.169-1.288-1.752-2.881-1.752-4.789c0-3.542,1.843-6.728,5.544-9.546c2.438-1.86,5.495-3.03,9.143-3.515
					c0.484,0.185,1.066,0.288,1.763,0.288h3.629l-4.035,9.89C94.877,242.009,91.566,245.205,87.541,245.205z M111.732,245.552
					c1.183,0.804,1.769,2.203,1.769,4.183c0,1.68-0.442,3.35-1.347,5.008c-0.896,1.654-2.069,2.958-3.502,3.91
					c-2.244,1.498-5.53,2.248-9.859,2.248h-2.455l6.705-16.563h2.513C108.49,244.338,110.546,244.739,111.732,245.552z
					 M157.234,248.027l-1.955,4.85c-0.506,1.25-1.524,1.873-3.054,1.873h-0.7c-1.546,0-2.326-0.961-2.326-2.884
					c0-1.7,0.643-3.341,1.934-4.927c1.286-1.586,2.61-2.384,3.97-2.384c0.693,0,1.283,0.19,1.783,0.562
					c0.494,0.373,0.744,0.813,0.744,1.313C157.631,246.863,157.496,247.399,157.234,248.027z M159.929,241.395
					c-0.978-1.466-2.49-2.248-4.47-2.419c0.603-0.333,1.101-0.816,1.481-1.472c1.313,1.332,2.888,1.988,4.739,1.988h0.661
					C161.396,239.781,160.585,240.402,159.929,241.395z M165.339,223.227c0.791,0,1.418,0.271,1.904,0.801
					c0.487,0.529,0.729,1.218,0.729,2.057c0,1.079-0.316,2.306-0.968,3.667c-0.643,1.362-1.389,2.392-2.247,3.077
					c-0.618,0.51-1.373,0.762-2.272,0.762c-1.253,0-2.343-0.603-3.273-1.796l1.88-4.619
					C162.15,224.545,163.568,223.227,165.339,223.227z"/>
				<path fill="#FFFFFF" d="M190.025,215.797c0.754-0.76,1.132-1.679,1.132-2.76c0-1.083-0.378-1.999-1.132-2.758
					c-0.76-0.756-1.68-1.133-2.761-1.133c-1.082,0-1.996,0.377-2.757,1.133c-0.761,0.759-1.137,1.675-1.137,2.758
					c0,1.081,0.376,2,1.137,2.76c0.761,0.755,1.675,1.134,2.757,1.134C188.346,216.931,189.266,216.552,190.025,215.797z"/>
				<path fill="#FFFFFF" d="M195.135,238.398c1.063,0.733,3.114,1.094,6.158,1.094c1.861,0,3.316-0.142,4.354-0.435
					c1.039-0.287,2.039-0.814,3.009-1.577c1.457-1.177,2.642-2.747,3.556-4.721c0.914-1.973,1.371-3.949,1.371-5.947
					c0-2.653-0.871-4.836-2.618-6.551c-1.741-1.717-3.973-2.577-6.677-2.577c-3.488,0-6.515,1.298-9.068,3.889
					c-2.563,2.599-3.842,5.671-3.842,9.214C191.377,234.146,192.633,236.685,195.135,238.398z M199.834,225.693
					c1.141-1.361,2.4-2.046,3.783-2.046c0.992,0,1.791,0.328,2.411,0.981c0.612,0.652,0.916,1.509,0.916,2.578
					c0,1.846-0.628,3.486-1.903,4.926c-0.761,0.879-1.859,1.318-3.276,1.318c-2.425,0-3.636-1.085-3.636-3.248
					C198.129,228.556,198.697,227.055,199.834,225.693z"/>
				<path fill="#FFFFFF" d="M193.463,254.608H190.1l3.058-7.531c0.41-1.026,0.618-1.969,0.618-2.826
					c0-1.547-0.572-2.829-1.713-3.835c-0.993-0.884-2.246-1.358-3.717-1.466c0.238-0.114,0.467-0.249,0.669-0.405
					c0.833-0.639,1.244-1.524,1.244-2.66c0-1.663-1.171-2.492-3.526-2.492h-3.164l4-9.912c0.511-1.23,0.764-2.146,0.764-2.744
					c0-0.73-0.289-1.353-0.859-1.875c-0.566-0.524-1.247-0.787-2.026-0.787c-1.904,0-3.287,1.056-4.144,3.166l-0.306,0.787
					l-4.622,11.365c-0.394,0.953-0.59,1.733-0.59,2.352c0,1.158,0.474,2.071,1.417,2.741c0.638,0.456,1.456,0.747,2.415,0.894
					c-0.216-0.036-0.433-0.079-0.687-0.079c-1.751,0-2.993,0.902-3.721,2.712l-5.656,13.938l-0.308,0.762
					c-0.298,0.727-0.446,1.349-0.446,1.87c0,0.711,0.277,1.31,0.839,1.795c0.557,0.484,1.243,0.728,2.042,0.728
					c1.961,0,3.432-1.232,4.426-3.697l3.302-8.117c1.175-2.892,2.723-4.341,4.649-4.341c0.595,0,1.084,0.159,1.468,0.48
					c0.386,0.315,0.565,0.7,0.55,1.145c-0.021,0.393-0.162,0.906-0.426,1.542l-2.462,6.101c-0.524,1.271-0.778,2.226-0.778,2.857
					c0,1.047,0.38,1.917,1.157,2.604c0.774,0.69,1.731,1.031,2.866,1.031h5.852c1.475,0,2.631-0.313,3.479-0.946
					c0.833-0.641,1.259-1.524,1.259-2.664C197.023,255.44,195.842,254.608,193.463,254.608z M182.018,241.197
					c-0.459-0.933-1.141-1.518-2.041-1.759c0.35,0.037,0.714,0.054,1.102,0.054h3.83
					C183.961,239.878,182.999,240.441,182.018,241.197z"/>
				<path fill="#FFFFFF" d="M215.275,254.608h-5.294c-1.942,0-3.315-0.277-4.129-0.826c-0.812-0.547-1.216-1.486-1.216-2.812
					c0-1.587,0.497-3.023,1.498-4.313c0.998-1.287,2.104-1.932,3.315-1.932c1.29,0,1.93,0.65,1.93,1.961
					c0,0.187-0.005,0.383-0.028,0.586c0,0.17,0,0.374,0,0.617c0,1.605,0.861,2.407,2.578,2.407c1.081,0,1.971-0.44,2.658-1.329
					c0.696-0.887,1.041-2.021,1.041-3.402c0-1.979-0.697-3.583-2.076-4.816c-1.38-1.231-3.174-1.844-5.373-1.844
					c-3.248,0-6.082,1.284-8.486,3.863c-2.408,2.573-3.606,5.606-3.606,9.098c0,2.606,0.729,4.742,2.19,6.384
					c1.473,1.642,3.369,2.46,5.7,2.46h8.124c1.451,0,2.606-0.321,3.453-0.967c0.85-0.637,1.273-1.522,1.273-2.644
					C218.828,255.44,217.639,254.608,215.275,254.608z"/>
				<path fill="#FFFFFF" d="M232.836,238.905c-3.493,0-6.521,1.297-9.08,3.888c-2.553,2.591-3.834,5.665-3.834,9.211
					c0,3.362,1.252,5.899,3.753,7.616c1.063,0.729,3.117,1.09,6.155,1.09c1.869,0,3.322-0.141,4.357-0.43
					c1.033-0.288,2.041-0.82,3.01-1.582c1.455-1.178,2.642-2.749,3.555-4.721c0.914-1.967,1.373-3.948,1.373-5.95
					c0-2.651-0.876-4.834-2.622-6.549C237.76,239.762,235.536,238.905,232.836,238.905z M233.59,253.351
					c-0.773,0.877-1.861,1.314-3.282,1.314c-2.422,0-3.64-1.083-3.64-3.247c0-1.64,0.572-3.141,1.709-4.506
					c1.137-1.364,2.398-2.047,3.779-2.047c0.992,0,1.791,0.328,2.41,0.981c0.615,0.653,0.921,1.512,0.921,2.578
					C235.487,250.267,234.854,251.916,233.59,253.351z"/>
			</g>
		</g>
		<rect x="20.373" y="263.925" fill="#FFFFFF" width="46.449" height="7.429"/>
		<circle fill="#FFFFFF" cx="20.087" cy="267.639" r="3.714"/>
	</g>
	<g>
		<g>
			<polyline fill="none" stroke="#FFFFFF" stroke-miterlimit="10" points="165.299,0.902 165.815,0.046 166.36,0.884 			"/>
			
				<line fill="none" stroke="#FFFFFF" stroke-miterlimit="10" stroke-dasharray="2.0054,2.0054" x1="167.453" y1="2.566" x2="341.727" y2="270.783"/>
			<polyline fill="none" stroke="#FFFFFF" stroke-miterlimit="10" points="342.273,271.624 342.818,272.462 342.183,273.234 			"/>
			
				<line fill="none" stroke="#FFFFFF" stroke-miterlimit="10" stroke-dasharray="1.9865,1.9865" x1="340.921" y1="274.769" x2="177.522" y2="473.461"/>
			<polyline fill="none" stroke="#FFFFFF" stroke-miterlimit="10" points="176.891,474.228 176.256,475 175.596,474.249 			"/>
			
				<line fill="none" stroke="#FFFFFF" stroke-miterlimit="10" stroke-dasharray="1.9887,1.9887" x1="174.283" y1="472.755" x2="1.689" y2="276.28"/>
			<polyline fill="none" stroke="#FFFFFF" stroke-miterlimit="10" points="1.033,275.533 0.373,274.781 0.889,273.925 			"/>
			
				<line fill="none" stroke="#FFFFFF" stroke-miterlimit="10" stroke-dasharray="2.0044,2.0044" x1="1.923" y1="272.208" x2="164.782" y2="1.761"/>
		</g>
	</g>
	<g>
		<path fill="#FFFBCC" d="M111.434,292.908l2.423-11.608h3.5c0.839,0,1.48,0.061,1.924,0.182c0.633,0.164,1.174,0.455,1.624,0.875
			c0.448,0.419,0.786,0.943,1.013,1.572c0.227,0.628,0.341,1.333,0.341,2.114c0,0.935-0.142,1.786-0.424,2.554
			c-0.283,0.768-0.652,1.444-1.108,2.027c-0.457,0.583-0.935,1.04-1.434,1.37c-0.499,0.33-1.088,0.574-1.77,0.732
			c-0.518,0.122-1.153,0.182-1.908,0.182H111.434z M113.263,291.593h1.837c0.829,0,1.565-0.077,2.209-0.229
			c0.401-0.095,0.745-0.235,1.029-0.42c0.375-0.237,0.715-0.551,1.021-0.942c0.401-0.518,0.722-1.107,0.962-1.77
			c0.24-0.662,0.36-1.416,0.36-2.261c0-0.939-0.164-1.661-0.491-2.166c-0.327-0.504-0.744-0.838-1.251-1.001
			c-0.375-0.122-0.958-0.182-1.75-0.182h-2.051L113.263,291.593z"/>
		<path fill="#FFFBCC" d="M122.907,292.908l1.758-8.409h1.433l-1.758,8.409H122.907z M124.997,282.923l0.341-1.623h1.425
			l-0.341,1.623H124.997z"/>
		<path fill="#FFFBCC" d="M126.699,290.033l1.434-0.087c0,0.412,0.063,0.763,0.19,1.053c0.126,0.291,0.36,0.528,0.701,0.712
			c0.34,0.185,0.738,0.277,1.191,0.277c0.634,0,1.109-0.127,1.425-0.38c0.317-0.253,0.475-0.552,0.475-0.895
			c0-0.248-0.095-0.483-0.285-0.705c-0.195-0.222-0.672-0.495-1.429-0.82c-0.758-0.324-1.242-0.553-1.453-0.685
			c-0.354-0.216-0.621-0.471-0.8-0.764c-0.18-0.293-0.269-0.629-0.269-1.01c0-0.665,0.264-1.235,0.792-1.71s1.267-0.712,2.217-0.712
			c1.056,0,1.859,0.244,2.411,0.732c0.551,0.488,0.838,1.131,0.859,1.928l-1.401,0.095c-0.021-0.507-0.201-0.908-0.539-1.204
			c-0.338-0.295-0.815-0.443-1.433-0.443c-0.496,0-0.882,0.114-1.156,0.341s-0.412,0.472-0.412,0.736
			c0,0.264,0.119,0.496,0.356,0.697c0.158,0.137,0.567,0.348,1.227,0.633c1.098,0.475,1.79,0.85,2.075,1.125
			c0.454,0.438,0.681,0.971,0.681,1.6c0,0.417-0.128,0.826-0.384,1.227c-0.256,0.401-0.646,0.722-1.172,0.962
			c-0.525,0.24-1.144,0.36-1.856,0.36c-0.972,0-1.798-0.24-2.479-0.72C126.984,291.897,126.663,291.116,126.699,290.033z"/>
		<path fill="#FFFBCC" d="M140.85,290.049l1.394,0.143c-0.201,0.691-0.661,1.349-1.382,1.972c-0.721,0.623-1.58,0.934-2.578,0.934
			c-0.623,0-1.194-0.144-1.714-0.432c-0.52-0.288-0.916-0.706-1.188-1.255c-0.272-0.549-0.408-1.174-0.408-1.876
			c0-0.918,0.212-1.81,0.637-2.672c0.425-0.863,0.976-1.504,1.651-1.924c0.676-0.419,1.407-0.629,2.193-0.629
			c1.003,0,1.804,0.312,2.403,0.935c0.599,0.623,0.899,1.473,0.899,2.549c0,0.412-0.037,0.834-0.111,1.267h-6.192
			c-0.021,0.164-0.031,0.312-0.031,0.443c0,0.787,0.181,1.387,0.542,1.801c0.362,0.415,0.804,0.622,1.327,0.622
			c0.491,0,0.974-0.161,1.449-0.483C140.216,291.121,140.585,290.656,140.85,290.049z M136.685,287.967h4.719
			c0.005-0.148,0.008-0.253,0.008-0.317c0-0.718-0.18-1.268-0.539-1.651s-0.821-0.574-1.386-0.574c-0.612,0-1.17,0.211-1.674,0.633
			C137.309,286.481,136.933,287.117,136.685,287.967z"/>
		<path fill="#FFFBCC" d="M143.692,292.908l1.758-8.409h1.298l-0.309,1.465c0.564-0.575,1.093-0.995,1.583-1.259
			c0.491-0.264,0.992-0.396,1.504-0.396c0.681,0,1.215,0.185,1.604,0.554c0.388,0.37,0.582,0.863,0.582,1.481
			c0,0.312-0.069,0.802-0.206,1.473l-1.069,5.091h-1.433l1.116-5.329c0.111-0.517,0.167-0.9,0.167-1.148
			c0-0.28-0.096-0.507-0.289-0.681c-0.193-0.174-0.471-0.261-0.835-0.261c-0.734,0-1.387,0.264-1.959,0.792
			s-0.994,1.433-1.263,2.716l-0.815,3.912H143.692z M146.432,283.232c0.174-0.702,0.389-1.173,0.645-1.414s0.577-0.36,0.962-0.36
			c0.174,0,0.344,0.021,0.51,0.063c0.167,0.042,0.456,0.154,0.867,0.336s0.694,0.273,0.847,0.273c0.122,0,0.23-0.043,0.325-0.13
			c0.095-0.087,0.174-0.252,0.238-0.495h0.958c-0.053,0.544-0.229,0.969-0.527,1.275c-0.298,0.306-0.643,0.459-1.033,0.459
			c-0.211,0-0.478-0.069-0.8-0.206c-0.729-0.317-1.177-0.475-1.346-0.475c-0.169,0-0.309,0.054-0.42,0.163
			c-0.111,0.108-0.19,0.278-0.237,0.511H146.432z"/>
		<path fill="#FFFBCC" d="M158.38,291.862c-0.497,0.428-0.974,0.741-1.434,0.938c-0.459,0.198-0.95,0.297-1.473,0.297
			c-0.776,0-1.401-0.228-1.876-0.685c-0.475-0.457-0.713-1.041-0.713-1.753c0-0.47,0.107-0.886,0.321-1.248
			c0.214-0.361,0.498-0.652,0.852-0.871c0.354-0.219,0.786-0.376,1.298-0.471c0.322-0.063,0.933-0.114,1.833-0.15
			c0.9-0.037,1.545-0.132,1.936-0.285c0.111-0.391,0.167-0.715,0.167-0.974c0-0.333-0.122-0.594-0.364-0.784
			c-0.333-0.264-0.818-0.396-1.457-0.396c-0.602,0-1.094,0.133-1.477,0.4s-0.661,0.646-0.835,1.136l-1.449-0.126
			c0.295-0.834,0.764-1.473,1.405-1.917c0.642-0.443,1.451-0.665,2.427-0.665c1.04,0,1.863,0.248,2.47,0.744
			c0.464,0.37,0.697,0.85,0.697,1.441c0,0.449-0.066,0.969-0.198,1.56l-0.467,2.09c-0.148,0.666-0.222,1.207-0.222,1.624
			c0,0.264,0.058,0.644,0.174,1.14h-1.449C158.467,292.633,158.412,292.285,158.38,291.862z M158.911,288.648
			c-0.201,0.079-0.416,0.14-0.645,0.182c-0.23,0.042-0.614,0.087-1.152,0.134c-0.834,0.074-1.423,0.168-1.766,0.281
			c-0.343,0.114-0.602,0.294-0.776,0.542c-0.174,0.248-0.262,0.522-0.262,0.823c0,0.401,0.139,0.731,0.416,0.99
			c0.277,0.259,0.671,0.388,1.184,0.388c0.475,0,0.932-0.125,1.37-0.376c0.438-0.251,0.784-0.601,1.037-1.049
			S158.768,289.477,158.911,288.648z"/>
		<path fill="#FFFBCC" d="M167.399,291.688c-0.818,0.939-1.674,1.409-2.565,1.409c-0.797,0-1.461-0.294-1.992-0.883
			c-0.53-0.588-0.796-1.442-0.796-2.562c0-1.024,0.21-1.959,0.63-2.807c0.419-0.847,0.945-1.482,1.576-1.904
			c0.63-0.422,1.263-0.633,1.896-0.633c1.045,0,1.834,0.504,2.368,1.512l0.95-4.521h1.425l-2.423,11.608h-1.322L167.399,291.688z
			 M163.471,289.384c0,0.586,0.058,1.048,0.174,1.386s0.314,0.619,0.594,0.843c0.28,0.224,0.615,0.336,1.006,0.336
			c0.649,0,1.238-0.338,1.766-1.014c0.708-0.897,1.061-2.006,1.061-3.326c0-0.665-0.174-1.185-0.522-1.56
			c-0.349-0.375-0.787-0.563-1.314-0.563c-0.343,0-0.656,0.077-0.938,0.23c-0.282,0.153-0.562,0.413-0.839,0.78
			c-0.277,0.367-0.511,0.833-0.701,1.397S163.471,288.957,163.471,289.384z"/>
		<path fill="#FFFBCC" d="M171.002,289.717c0-1.642,0.483-3.001,1.449-4.078c0.797-0.887,1.842-1.33,3.136-1.33
			c1.014,0,1.83,0.317,2.451,0.95c0.62,0.633,0.93,1.489,0.93,2.565c0,0.966-0.195,1.865-0.586,2.696
			c-0.391,0.831-0.946,1.469-1.667,1.912c-0.721,0.443-1.479,0.665-2.276,0.665c-0.655,0-1.25-0.14-1.786-0.419
			c-0.536-0.28-0.945-0.676-1.228-1.188C171.143,290.979,171.002,290.387,171.002,289.717z M172.435,289.574
			c0,0.792,0.19,1.392,0.57,1.801c0.38,0.409,0.863,0.614,1.449,0.614c0.306,0,0.61-0.062,0.911-0.186s0.581-0.313,0.839-0.566
			c0.258-0.253,0.479-0.542,0.661-0.867s0.329-0.674,0.439-1.049c0.164-0.522,0.246-1.024,0.246-1.504c0-0.76-0.191-1.35-0.574-1.77
			c-0.383-0.419-0.864-0.629-1.445-0.629c-0.449,0-0.858,0.107-1.227,0.321c-0.37,0.214-0.704,0.526-1.001,0.938
			c-0.298,0.412-0.518,0.891-0.657,1.437C172.505,288.66,172.435,289.146,172.435,289.574z"/>
		<path fill="#FFFBCC" d="M179.767,292.908l1.758-8.409h1.267l-0.356,1.718c0.433-0.649,0.856-1.129,1.271-1.441
			c0.415-0.312,0.838-0.467,1.271-0.467c0.285,0,0.636,0.103,1.053,0.309l-0.586,1.331c-0.248-0.18-0.52-0.27-0.815-0.27
			c-0.502,0-1.017,0.28-1.544,0.839c-0.528,0.56-0.942,1.565-1.243,3.017l-0.712,3.373H179.767z"/>
		<path fill="#FFFBCC" d="M191.874,292.908l-0.713-11.608h1.576l0.27,5.741c0.016,0.274,0.042,1.019,0.079,2.233
			c0.011,0.338,0.016,0.575,0.016,0.712c0,0.09-0.002,0.351-0.008,0.784c0.644-1.32,1.109-2.249,1.394-2.788l3.531-6.683h1.6
			l0.389,6.786c0.041,0.776,0.07,1.71,0.086,2.803c0.096-0.27,0.264-0.67,0.508-1.204c0.385-0.86,0.67-1.476,0.854-1.845
			l3.311-6.541h1.584l-5.906,11.608h-1.664l-0.389-7.031c-0.035-0.602-0.064-1.341-0.086-2.217c-0.322,0.734-0.592,1.304-0.809,1.71
			l-4.021,7.538H191.874z"/>
		<path fill="#FFFBCC" d="M210.862,290.049l1.394,0.143c-0.201,0.691-0.661,1.349-1.382,1.972c-0.721,0.623-1.58,0.934-2.577,0.934
			c-0.623,0-1.194-0.144-1.715-0.432c-0.52-0.288-0.916-0.706-1.188-1.255c-0.271-0.549-0.408-1.174-0.408-1.876
			c0-0.918,0.213-1.81,0.638-2.672c0.425-0.863,0.976-1.504,1.651-1.924c0.676-0.419,1.406-0.629,2.193-0.629
			c1.003,0,1.804,0.312,2.403,0.935c0.599,0.623,0.898,1.473,0.898,2.549c0,0.412-0.037,0.834-0.111,1.267h-6.191
			c-0.021,0.164-0.032,0.312-0.032,0.443c0,0.787,0.181,1.387,0.543,1.801c0.361,0.415,0.804,0.622,1.326,0.622
			c0.491,0,0.974-0.161,1.449-0.483C210.229,291.121,210.598,290.656,210.862,290.049z M206.697,287.967h4.719
			c0.006-0.148,0.008-0.253,0.008-0.317c0-0.718-0.179-1.268-0.538-1.651s-0.821-0.574-1.386-0.574
			c-0.612,0-1.171,0.211-1.675,0.633S206.945,287.117,206.697,287.967z"/>
		<path fill="#FFFBCC" d="M213.704,292.908l2.423-11.608h1.434l-0.863,4.149c0.454-0.417,0.866-0.711,1.235-0.883
			s0.755-0.257,1.156-0.257c0.786,0,1.442,0.293,1.968,0.879s0.788,1.438,0.788,2.558c0,0.744-0.106,1.425-0.317,2.043
			s-0.473,1.136-0.783,1.556c-0.312,0.42-0.634,0.755-0.967,1.006c-0.332,0.25-0.673,0.438-1.021,0.562
			c-0.348,0.124-0.684,0.186-1.005,0.186c-0.555,0-1.043-0.146-1.465-0.439c-0.423-0.293-0.753-0.74-0.99-1.342l-0.332,1.591
			H213.704z M215.826,289.456l-0.008,0.269c0,0.718,0.172,1.264,0.515,1.639c0.344,0.375,0.771,0.562,1.283,0.562
			c0.501,0,0.962-0.175,1.382-0.526c0.419-0.351,0.764-0.899,1.033-1.643c0.269-0.744,0.403-1.431,0.403-2.059
			c0-0.708-0.17-1.256-0.511-1.647c-0.34-0.391-0.761-0.586-1.263-0.586c-0.518,0-0.992,0.199-1.425,0.598
			c-0.434,0.398-0.795,1.012-1.085,1.841C215.935,288.521,215.826,289.039,215.826,289.456z"/>
	</g>
</g>
</svg>
