<?xml version="1.0" encoding="utf-8"?>
<!-- Generator: Adobe Illustrator 16.0.0, SVG Export Plug-In . SVG Version: 6.00 Build 0)  -->
<!DOCTYPE svg PUBLIC "-//W3C//DTD SVG 1.1//EN" "http://www.w3.org/Graphics/SVG/1.1/DTD/svg11.dtd">
<svg version="1.1" id="Capa_1" xmlns="http://www.w3.org/2000/svg" xmlns:xlink="http://www.w3.org/1999/xlink" x="0px" y="0px"
	 width="410.212px" height="514px" viewBox="-33.365 24 410.212 514" enable-background="new -33.365 24 410.212 514"
	 xml:space="preserve">
<g>
	<g>
		<polygon fill="#151528" points="82.101,406.538 8.744,339.064 -21.163,242.721 0.639,142.71 67.998,67.266 162.847,36.161 
			259.759,57.287 333.467,125.14 363.722,221.863 341.918,321.874 274.212,396.938 179.013,427.664 		"/>
		<g>
			<path fill-rule="evenodd" clip-rule="evenodd" fill="#070125" d="M8.219,296.198c-0.883-4.679-1.798-9.353-2.643-14.036
				c-1.137-6.312-2.219-12.63-3.329-18.944c-0.939-5.346-1.876-10.692-2.825-16.034c-0.489-2.748-1.028-5.486-1.486-8.236
				c-0.119-0.716-0.018-1.467-0.018-2.32c1.283,0.18,1.64,1.386,2.596,1.663l-0.059-0.02c0.138,0.109,0.275,0.218,0.413,0.328
				c3.267,8.326,6.535,16.652,9.801,24.979c0.448,1.145,1.17,1.95,2.314,2.552c3.081,1.616,6.087,3.373,9.119,5.08
				c9.688,5.452,19.374,10.909,29.062,16.364c0.164,0.349,0.329,0.699,0.492,1.049c4.709,13.387,9.419,26.774,14.127,40.16
				c4.008,11.397,8.022,22.793,12.009,34.197c0.441,1.263,0.776,2.039,2.489,1.356c12.156-4.844,24.336-9.631,36.553-14.321
				c7.042-2.705,13.958-5.715,20.956-8.724c-0.96-1.228-2.691-1.652-4.09-2.521c-14.12-8.771-28.214-17.583-42.451-26.167
				c-7.846-4.73-15.821-9.238-23.38-14.435c-4.819-3.313-9.837-6.342-14.766-9.498c0.276-0.171,0.64-0.554,0.814-0.482
				c2.317,0.961,4.83,0.758,7.225,1.242c7.042,1.425,14.083,2.865,21.144,4.189c14.127,2.651,28.27,5.233,42.406,7.839
				c6.15,1.134,12.301,2.259,18.452,3.388c0.293,0.166,0.569,0.373,0.879,0.493c16.321,6.278,32.646,12.55,48.969,18.821
				c-0.545,0.758-1.417,0.855-2.224,1.104c-7.545,2.332-15.087,4.675-22.628,7.016c-9.248,2.87-18.488,5.772-27.758,8.576
				c-1.488,0.448-1.76,0.804-0.921,2.218c0.743,1.256,1.868,2.177,2.575,3.404c4.464,7.773,9.738,15.027,14.714,22.473
				c5.213,7.799,10.56,15.51,15.847,23.26c-0.012,1.07,0.678,1.876,1.108,2.769c1.998,4.146,4.037,8.274,6.063,12.408
				c-7.354-3.436-14.705-6.876-22.063-10.304c-2.83-1.317-5.714-2.53-8.498-3.939c-1.329-0.671-2.681-0.508-3.948-0.357
				c-9.191,1.106-18.388,2.539-27.657,1.883c-6.624-0.47-13.261,0.086-19.834-0.52c-6.203-0.57-12.396,0.024-18.559-0.48
				c-3.465-0.284-6.916-0.459-10.378-0.384c-0.987,0.021-1.29-0.491-1.64-1.157c-3.543-6.73-7.068-13.469-10.641-20.183
				c-6.145-11.55-12.322-23.08-18.477-34.625c-0.149-0.278-0.188-0.616-0.277-0.928c1.813,0.583,2.221,0.046,1.51-1.694
				c-3.197-7.809-6.358-15.632-9.504-23.461c-4.501-11.193-8.921-22.422-13.499-33.586c-1.513-3.691-2.74-7.531-4.956-10.986
				c-0.877,7.65-1.376,15.279-2.253,22.864C8.841,291.742,9.158,294.066,8.219,296.198z"/>
			<path fill-rule="evenodd" clip-rule="evenodd" fill="#280328" d="M51.165,287.573c-9.688-5.455-19.374-10.912-29.062-16.364
				c-3.032-1.707-6.038-3.464-9.119-5.08c-1.145-0.602-1.866-1.407-2.314-2.552c-3.266-8.326-6.534-16.652-9.801-24.979
				c-0.252,0.031-0.417-0.043-0.413-0.328l0.059,0.02c-0.646-2.288-1.454-4.475-3.557-5.904c-0.275-0.187-0.713-0.502-0.686-0.708
				c0.609-4.59-2.329-9.094-0.336-13.707c2.948-7.073,5.143-14.408,7.609-21.647c3.415-10.021,6.657-20.101,10.01-30.143
				c3.652-10.933,7.347-21.852,11.02-32.776c0.267-0.797,0.406-1.687,1.51-1.778c3.167,7.619,5.017,15.666,7.703,23.44
				c1.917,5.547,3.139,11.324,5.607,16.688c-0.18,1.884,0.296,3.677,0.721,5.49c1.323,5.649,2.627,11.304,3.87,16.972
				c2.591,11.826,5.139,23.663,7.704,35.494C51.642,248.998,51.906,268.29,51.165,287.573z"/>
			<path fill-rule="evenodd" clip-rule="evenodd" fill="#A0082D" d="M187.223,49.719c0,0,0.109-0.096,0.109-0.095
				c0.438,0.883,1.195,0.72,1.943,0.592c0.23-0.235,0.444-0.19,0.646,0.037c4.979,1.932,10.154,3.032,15.455,3.597
				c0,0-0.046-0.03-0.046-0.029c0.809,0.92,1.904,1.064,3.043,1.099c-1.333,2.99-4.243,4.286-6.659,6.115
				c-0.118-2.857-2.025-2.13-3.648-1.712c-1.133,0.292-2.056,1.184-3.327,1.195c-3.665,0.036-7.236,0.681-10.748,1.695
				c-3.154,0.912-6.227,0.833-9.511,0.175c-3.486-0.7-7.205-1.133-10.58,1.087c-1.243,0.816-3.541,1.938-4.182,1.254
				c-2.794-2.981-2.289,0.623-2.5,1.254c-2.161,6.44-4.147,12.938-6.182,19.42c-11.618,7.452-23.354,14.729-34.82,22.403
				c-11.615,7.774-23.454,15.202-35.085,22.945c-0.717,0.476-1.377,1.006-2.312,0.872c0.676-0.754,1.312-1.547,2.033-2.256
				c15.858-15.576,31.725-31.143,47.59-46.713c0.484-0.475,0.979-0.943,1.434-1.445c0.779-0.857,0.537-1.55-0.587-1.342
				c-2.931,0.541-5.929,0.31-8.692,2.256c-3.007,2.117-5.869,4.53-9.313,6.059c-3.381,1.5-6.737,3.092-9.958,4.897
				c-8.154,4.57-16.768,8.191-25.183,12.218c-6.539,3.129-13.403,5.673-18.902,10.617c-0.153-0.153-0.308-0.304-0.46-0.458
				c0.021-0.496-0.083-0.928-0.592-1.156c0.063-0.324,0.127-0.647,0.191-0.973c1.34-0.399,1.112-1.152,0.459-2.001
				c1.615-7.291,3.229-14.581,4.843-21.871c1.128-3.206,1.865-6.5,2.21-9.878c0.073-0.93,0.691-1.229,1.516-1.4
				c8.023-1.668,16.039-3.366,24.064-5.02c0.65-0.134,1.354-0.006,2.032,0c1-0.15,2.008-0.271,3.001-0.457
				c11.395-2.13,22.898-3.816,34.155-6.516c15.793-3.785,31.582-7.719,46.801-13.511c1.433-0.545,3.241-0.276,4.252-1.806
				l-0.019,0.009c0.507-0.008,1.015-0.016,1.521-0.023c1.271-0.318,2.602-0.496,3.599-1.475c0.174-0.029,0.346-0.059,0.52-0.088
				C185.83,50.016,186.539,49.818,187.223,49.719z"/>
			<path fill-rule="evenodd" clip-rule="evenodd" fill="#6F0529" d="M347.644,232.156c-0.32,3.99-0.838,7.937-1.669,11.872
				c-0.749,3.541-0.908,7.202-1.336,10.81c-0.487,4.086-0.941,8.185-1.335,12.273c-0.378,3.914-0.725,7.835-1.136,11.751
				c-1.121,10.658-2.354,21.283-5.165,31.683c-2.051,7.585-3.73,15.267-5.643,22.892c-0.263,1.047-0.03,2.751-2.061,2.421
				c-0.371-0.182-0.725-0.428-1.116-0.539c-10.805-3.037-21.611-6.071-32.429-9.071c-0.93-0.259-1.897-0.317-1.959-1.571
				c2.386-6.021,3.378-12.424,5.114-18.624c2.671-9.537,4.933-19.187,7.359-28.792c1.499-5.937,2.984-11.877,4.476-17.815
				c0.061-0.431,0.122-0.862,0.183-1.293c0.615,0.004,1.139-0.181,1.647-0.559c8.082-5.999,16.134-12.039,24.288-17.941
				C340.405,237.088,343.552,233.946,347.644,232.156z"/>
			<path fill-rule="evenodd" clip-rule="evenodd" fill="#280328" d="M288.761,351.5c-3.153,3.4-5.437,7.428-8.136,11.154
				c-6.588,9.092-12.635,18.562-19.51,27.453c-0.129-0.397-0.205-0.823-0.392-1.191c-5.123-10.009-10.159-20.063-15.458-29.979
				c-1.249-2.333-2.017-5.03-4.136-6.877c0.014-0.728-0.539-0.978-1.065-1.274c-11.953-6.774-23.909-13.547-35.855-20.334
				c-3.343-1.9-6.654-3.85-10.396-6.015c3.831-0.859,7.034-1.634,10.26-2.292c18.903-3.862,37.8-7.753,56.722-11.509
				c5.722-1.136,11.365-2.696,17.197-3.277c-0.093,1.169-0.77,2.007-1.532,2.835c-1.488,1.617-2.958,3.252-4.372,4.933
				c-7.438,8.847-14.917,17.66-22.243,26.598c-2.331,2.843-5.251,5.28-6.662,8.817c-0.224,0.067-0.447,0.135-0.669,0.201
				c0.044,0.064,0.087,0.129,0.13,0.193c0.186-0.123,0.37-0.25,0.557-0.373c0.939-0.383,1.907-0.707,2.813-1.156
				c15.022-7.436,30.035-14.89,45.06-22.319c0.629-0.31,1.285-1.125,2.04-0.519c0.552,0.445-0.1,1.084-0.163,1.644
				C292.048,336.063,289.9,343.693,288.761,351.5z"/>
			<path fill-rule="evenodd" clip-rule="evenodd" fill="#B10A2D" d="M347.644,232.156c-4.092,1.79-7.239,4.932-10.78,7.495
				c-8.154,5.902-16.206,11.942-24.288,17.941c-0.509,0.378-1.032,0.563-1.649,0.558c-2.31-0.097-4.557-0.566-6.801-1.062
				c-3.243-0.666-6.557-1.017-9.728-2.029c1.679-2.506,3.078-5.162,4.469-7.832c1.388-2.658,2.165-5.05,0.429-8.058
				c-2.476-4.285-2.092-5.315,1.43-8.675c1.043-0.994,2.095-1.983,3.205-2.899c0.833-0.689,1.947-2.883,2.355,0.329
				c0.133,1.04,1.224,0.615,1.929,0.713c0.919,9.518,1.838,19.036,2.758,28.553c0.792-0.839,1.126-1.692,1.392-2.563
				c6.434-21.133,12.896-42.258,19.244-63.415c0.872-2.907,1.688-5.831,2.604-8.728c0.24-0.758,0.477-1.759-0.302-2.363
				c-0.635-0.491-1.267,0.192-1.894,0.39c-4.688,1.483-9.38,2.96-14.07,4.44c-0.167-0.82-0.501-1.646-0.477-2.459
				c0.185-5.731-0.901-11.418-0.543-17.152c0.305-4.889-0.145-9.766-0.602-14.611c-0.254-2.705,0.552-5.34,0.06-7.989
				c-0.836-4.482-0.896-9.005-1.082-13.54c-0.099-2.415,0.199-5.072-1.466-7.244c1.154-2.92,3.127-5.383,4.628-8.107
				c1.528,1.904,1.363,4.337,2.085,6.489c0.363,1.079-0.133,2.578,1.397,3.156c2.757,7.917,3.677,16.249,5.521,24.369
				c6.152,27.089,13.083,53.986,19.914,80.909C347.656,229.85,348.471,230.964,347.644,232.156z M321.815,124.875
				c-0.086,0.138-0.22,0.259-0.222,0.384c-0.005,0.13,0.113,0.263,0.179,0.395c0.079-0.122,0.216-0.24,0.224-0.366
				C322.003,125.16,321.884,125.024,321.815,124.875z"/>
			<path fill-rule="evenodd" clip-rule="evenodd" fill="#070125" d="M241.13,352.06c2.12,1.847,2.888,4.544,4.137,6.877
				c5.299,9.917,10.335,19.971,15.458,29.979c0.187,0.368,0.263,0.794,0.392,1.191c-7.187-0.321-14.392-0.486-21.529-1.447
				c-3.522-0.475-6.104,1.737-9.088,2.773c-2.671,0.926-5.25,2.121-7.835,3.274c-0.738,0.328-1.061-0.166-1.534-0.428
				c3.055-2.893,6.109-5.784,9.598-9.088c-5.743,0.706-10.787,1.363-15.838,1.938c-7.306,0.831-14.539,2.186-21.875,2.815
				c-6.682,0.573-13.286,1.88-19.995,2.27C195.651,378.709,218.189,365.048,241.13,352.06z"/>
			<path fill-rule="evenodd" clip-rule="evenodd" fill="#070125" d="M243.183,350.541c1.411-3.537,4.331-5.975,6.662-8.817
				c7.326-8.938,14.806-17.751,22.243-26.598c1.414-1.681,2.884-3.315,4.372-4.933c0.763-0.828,1.439-1.666,1.532-2.835
				c0.237-0.221,0.473-0.442,0.71-0.664c0.279,0.007,0.561,0.012,0.84,0.016c0.213,0.456,0.349,0.969,0.647,1.357
				c3.576,4.653,7.139,9.319,10.801,13.905c0.796,0.995,1.174,2.524,2.806,2.703c0.062,1.254,1.029,1.313,1.959,1.571
				c10.817,3,21.624,6.034,32.429,9.071c0.392,0.111,0.745,0.357,1.116,0.539c-9.473,3.718-18.933,7.469-28.424,11.143
				c-4.017,1.555-7.935,3.375-12.114,4.5c1.138-7.807,3.285-15.438,4.188-23.288c0.063-0.56,0.715-1.198,0.163-1.644
				c-0.755-0.606-1.411,0.209-2.04,0.519c-15.024,7.43-30.037,14.884-45.06,22.319c-0.905,0.449-1.873,0.773-2.813,1.156
				L243.183,350.541z"/>
			<path fill-rule="evenodd" clip-rule="evenodd" fill="#6F0529" d="M63.891,79.576c-0.345,3.378-1.082,6.672-2.211,9.878
				c-1.054,0.445-0.999,1.504-1.221,2.343c-7.039,26.648-14.05,53.303-21.065,79.958c-2.468-5.365-3.69-11.141-5.607-16.688
				c-2.687-7.774-4.536-15.821-7.703-23.44c-0.349-1.561,0.4-2.762,1.28-3.938c8.5-11.375,17.008-22.746,25.466-34.153
				c0.659-0.891,1.789-1.689,1.379-3.097l-0.012,0.016c0.839,0.14,1.116-0.275,1.044-1.037c0,0-0.018,0.044-0.018,0.043
				c0.394-0.071,0.492-0.381,0.576-0.703C58.497,85.697,61.195,82.636,63.891,79.576z"/>
			<path fill-rule="evenodd" clip-rule="evenodd" fill="#280328" d="M173.019,392.215c6.709-0.39,13.313-1.696,19.995-2.27
				c7.336-0.63,14.569-1.984,21.875-2.815c5.051-0.574,10.095-1.231,15.838-1.938c-3.488,3.304-6.543,6.195-9.598,9.088
				c-9.328,7.119-17.71,15.299-26.427,23.105c-1.69,1.517-3.461,2.959-5.026,4.6c-1.088,1.139-1.455,0.779-2.047-0.433
				c-1.948-3.986-4.039-7.903-6.015-11.879c-0.457-0.923-0.956-1.742-1.846-2.286c-2.024-4.134-4.063-8.262-6.062-12.408
				c-0.431-0.893-1.12-1.698-1.109-2.769c-0.001,0,0.211,0.008,0.211,0.008L173.019,392.215z"/>
			<path fill-rule="evenodd" clip-rule="evenodd" fill="#070125" d="M54.21,90.438c0.41,1.407-0.72,2.206-1.379,3.097
				c-8.458,11.407-16.966,22.778-25.466,34.153c-0.879,1.176-1.628,2.377-1.28,3.938c-1.104,0.092-1.243,0.981-1.51,1.778
				c-3.673,10.925-7.368,21.844-11.02,32.776c-3.354,10.042-6.595,20.123-10.01,30.143c-2.467,7.239-4.662,14.574-7.609,21.647
				c0.096-5.078,0.785-10.095,1.349-15.133c0.424-3.8,0.889-7.626,1.046-11.434c0.387-9.397,2.347-18.362,5.601-27.205
				c3.463-9.411,6.251-19.067,9.294-28.628c0.282-0.884,0.598-1.7,1.234-2.375c4.85-5.141,9.796-10.197,14.531-15.441
				c7.256-8.037,14.585-16.005,22.02-23.878C52.083,92.74,52.794,91.268,54.21,90.438z"/>
			<path fill-rule="evenodd" clip-rule="evenodd" fill="#EE1230" d="M318.465,113.849c-1.501,2.725-3.474,5.187-4.628,8.107
				c-0.577,0.823-1.204,1.616-1.722,2.473c-3.697,6.125-7.369,12.264-11.051,18.398c-0.683-0.852-1.445-1.654-2.038-2.564
				c-6.36-9.756-12.751-19.494-19.013-29.314c-2.617-4.106-5.61-7.996-7.635-12.462c2.544,0.273,4.883,1.307,7.331,1.931
				c4.574,1.168,8.881,3.27,13.628,3.819c6.27,2.512,12.885,3.94,19.266,6.096c2.262,0.765,4.798,0.834,6.735,2.476
				C319.047,113.155,318.755,113.502,318.465,113.849z"/>
			<path fill-rule="evenodd" clip-rule="evenodd" fill="#BE0C2E" d="M210.947,55.049c12.661,2.148,24.334,7.359,36.321,11.58
				c7.212,2.538,14.408,5.118,21.591,7.732c0.891,0.323,2.104,0.3,2.434,1.551c-0.6,0.911-0.492,1.939-0.44,2.934
				c0.323,6.251,0.671,12.501,1.012,18.75c-2.576,0.049-4.337-1.528-6.137-3.027c-0.213-0.43-0.604-0.519-1.037-0.531l0.013,0.009
				c-0.176-0.173-0.35-0.345-0.524-0.519l0.012,0.011c-0.221-0.421-0.607-0.51-1.036-0.516l0.011,0.008
				c-0.285-0.685-0.8-1.024-1.547-1.022l0.009,0.005c-0.206-0.263-0.361-0.604-0.626-0.778c-6.593-4.314-13.137-8.706-19.827-12.867
				c-3.075-1.913-5.859-4.307-9.261-5.701c-0.133-0.298-0.187-0.699-0.416-0.878c-3.99-3.125-8.064-6.146-11.99-9.349
				C216.588,60.062,213.133,58.271,210.947,55.049z"/>
			<path fill-rule="evenodd" clip-rule="evenodd" fill="#CD0D2F" d="M210.947,55.049c2.186,3.222,5.641,5.013,8.56,7.394
				c3.926,3.203,8,6.225,11.99,9.349c0.229,0.179,0.283,0.58,0.416,0.878c-2.686-0.324-5.37-0.676-8.061-0.965
				c-4.376-0.47-8.754-0.925-13.137-1.337c-4.863-0.459-9.73-0.865-14.599-1.294c7.793,2.023,15.662,3.519,23.493,5.187
				c3.606,0.769,7.357,0.976,10.782,2.523c-1.183,0.898-2.633,1.103-4.001,1.486c-4.564,1.277-9.145,2.501-13.718,3.742
				c-7.92,2.149-15.839,4.294-23.758,6.441c1.197-5.726,2.441-11.444,3.568-17.185c0.36-1.835,1.142-3.295,2.645-4.408
				c2.366-1.751,4.602-3.652,6.587-5.827c2.416-1.829,5.326-3.125,6.659-6.115c-0.002-0.14,0.001-0.28,0.013-0.421
				C209.302,54.397,210.135,54.683,210.947,55.049z"/>
			<path fill-rule="evenodd" clip-rule="evenodd" fill="#280328" d="M8.219,296.198c0.938-2.132,0.622-4.456,0.877-6.668
				c0.876-7.585,1.375-15.214,2.253-22.864c2.216,3.455,3.443,7.295,4.956,10.986c4.578,11.164,8.998,22.393,13.499,33.586
				c3.146,7.829,6.308,15.652,9.504,23.461c0.711,1.74,0.303,2.277-1.51,1.694l0.022,0.02c-0.14-0.202-0.279-0.402-0.418-0.602
				c-3.373-7.209-9.137-12.644-14.09-18.677c-4.668-5.687-9.39-11.33-14.045-17.028C8.365,299.003,7.883,297.682,8.219,296.198z"/>
			<path fill-rule="evenodd" clip-rule="evenodd" fill="#5E0429" d="M179.714,50.868c-1.011,1.529-2.819,1.261-4.252,1.806
				c-15.219,5.792-31.008,9.726-46.801,13.511c-11.257,2.699-22.76,4.386-34.155,6.516c-0.994,0.186-2.001,0.306-3.001,0.457
				c0.156-0.279,0.26-0.753,0.473-0.806c4.115-1.036,7.289-4.056,11.323-5.25c0.196-0.194,0.393-0.389,0.589-0.583l-0.057,0.046
				c0.485,0.049,0.907-0.03,1.087-0.563l-0.063,0.055c0.487,0.05,0.907-0.029,1.088-0.562l-0.063,0.054
				c0.795,0.17,1.523-0.098,2.206-0.419c4.806-2.269,9.605-4.555,14.389-6.874c0.208-0.101,0.231-0.577,0.341-0.878
				c0,0-0.04,0.042-0.039,0.042c1.046,0.068,2.146,0.269,2.621-1.06l-0.056,0.052c0.48,0.037,0.901-0.042,1.085-0.564l-0.064,0.054
				c0.482,0.039,0.903-0.039,1.085-0.563l-0.061,0.053c0.44,0.048,0.843-0.008,1.118-0.407c5.862-2.591,11.69-5.256,17.603-7.726
				c1.736-0.726,3.235-2.12,5.283-2.084c0.287,0.925-0.368,1.438-0.94,1.913c-4.615,3.835-9.288,7.6-13.856,11.489
				c-1.502,1.278-3.345,2.29-4.491,4.063c0.785,0.457,1.171,0.252,1.58,0.146c7.795-2.023,15.594-4.034,23.392-6.051
				C164.621,54.779,172.166,52.823,179.714,50.868z"/>
			<path fill-rule="evenodd" clip-rule="evenodd" fill="#89062B" d="M179.714,50.868c-7.548,1.955-15.093,3.911-22.639,5.863
				c-7.797,2.017-15.597,4.028-23.392,6.051c-0.409,0.106-0.794,0.312-1.58-0.146c1.146-1.773,2.989-2.785,4.491-4.063
				c4.568-3.889,9.241-7.654,13.856-11.489c0.573-0.475,1.227-0.987,0.94-1.913l0.012,0.006c0.57,0.103,0.985-0.054,1.131-0.662
				c2.03-1.556,4.095-1.856,6.713-1.195c7.126,1.798,14.357,3.188,21.535,4.789c1.371,0.306,2.69,0.839,4.033,1.268
				c-0.997,0.979-2.327,1.157-3.599,1.475c-0.519-0.662-1.023-0.622-1.521,0.023L179.714,50.868z"/>
			<path fill-rule="evenodd" clip-rule="evenodd" fill="#A0082D" d="M271.864,97.596c-0.341-6.249-0.688-12.499-1.012-18.75
				c-0.052-0.995-0.159-2.023,0.44-2.934c7.523,9.307,14.847,18.767,22.044,28.323c-4.746-0.549-9.053-2.65-13.627-3.818
				c-2.448-0.624-4.787-1.657-7.33-1.929C272.207,98.192,272.035,97.894,271.864,97.596z"/>
			<path fill-rule="evenodd" clip-rule="evenodd" fill="#2C0328" d="M122.816,57.376c-0.11,0.302-0.133,0.777-0.341,0.878
				c-4.784,2.319-9.583,4.605-14.389,6.874c-0.683,0.322-1.411,0.589-2.206,0.419C111.228,62.216,116.83,59.405,122.816,57.376z"/>
			<path fill-rule="evenodd" clip-rule="evenodd" fill="#B10A2D" d="M205.378,53.849c-5.301-0.565-10.477-1.666-15.455-3.597
				C195.129,51.223,200.303,52.327,205.378,53.849z"/>
			<path fill-rule="evenodd" clip-rule="evenodd" fill="#BE0C2E" d="M318.465,113.849c0.29-0.347,0.582-0.693,0.874-1.041
				c0.868,3.562,1.738,7.124,2.608,10.686c-1.53-0.578-1.034-2.077-1.397-3.156C319.828,118.186,319.993,115.752,318.465,113.849z"
				/>
			<path fill-rule="evenodd" clip-rule="evenodd" fill="#B10A2D" d="M208.387,54.498c-0.012,0.141-0.015,0.281-0.013,0.421
				c-1.139-0.035-2.234-0.179-3.043-1.099C206.395,53.847,207.428,54.003,208.387,54.498z"/>
			<path fill-rule="evenodd" clip-rule="evenodd" fill="#2C0328" d="M125.399,56.358c-0.475,1.329-1.575,1.128-2.621,1.06
				C123.454,56.586,124.391,56.39,125.399,56.358z"/>
			<path fill-rule="evenodd" clip-rule="evenodd" fill="#070125" d="M55.242,89.417c0.072,0.762-0.205,1.177-1.044,1.037
				C54.381,89.944,54.733,89.603,55.242,89.417z"/>
			<path fill-rule="evenodd" clip-rule="evenodd" fill="#B10A2D" d="M189.276,50.215c-0.748,0.128-1.506,0.291-1.943-0.592
				C188.044,49.618,188.719,49.723,189.276,50.215z"/>
			<path fill-rule="evenodd" clip-rule="evenodd" fill="#B10A2D" d="M187.223,49.719c-0.685,0.1-1.394,0.297-1.889-0.429
				C186.035,49.126,186.67,49.25,187.223,49.719z"/>
			<path fill-rule="evenodd" clip-rule="evenodd" fill="#2C0328" d="M127.448,55.336c-0.182,0.525-0.603,0.602-1.085,0.563
				C126.51,55.3,127.041,55.437,127.448,55.336z"/>
			<path fill-rule="evenodd" clip-rule="evenodd" fill="#2C0328" d="M126.428,55.845c-0.184,0.523-0.605,0.601-1.085,0.564
				C125.482,55.802,126.016,55.943,126.428,55.845z"/>
			<path fill-rule="evenodd" clip-rule="evenodd" fill="#2C0328" d="M128.505,54.982c-0.275,0.398-0.677,0.455-1.118,0.407
				C127.592,54.797,128.037,54.86,128.505,54.982z"/>
			<path fill-rule="evenodd" clip-rule="evenodd" fill="#2C0328" d="M104.919,66.001c-0.18,0.532-0.602,0.612-1.087,0.563
				C103.98,65.97,104.51,66.101,104.919,66.001z"/>
			<path fill-rule="evenodd" clip-rule="evenodd" fill="#2C0328" d="M105.944,65.494c-0.181,0.533-0.601,0.612-1.088,0.562
				C105.003,65.459,105.535,65.595,105.944,65.494z"/>
			<path fill-rule="evenodd" clip-rule="evenodd" fill="#5E0429" d="M152.533,44.516c-0.146,0.608-0.561,0.765-1.131,0.662
				C151.544,44.563,152.117,44.671,152.533,44.516z"/>
			<path fill-rule="evenodd" clip-rule="evenodd" fill="#2C0328" d="M103.889,66.517c-0.196,0.195-0.393,0.389-0.589,0.583
				C103.496,66.906,103.693,66.712,103.889,66.517z"/>
			<path fill-rule="evenodd" clip-rule="evenodd" fill="#070125" d="M37.403,335.812c0.14,0.199,0.279,0.399,0.418,0.602
				C37.528,336.316,37.292,336.184,37.403,335.812z"/>
			<path fill-rule="evenodd" clip-rule="evenodd" fill="#070125" d="M55.8,88.758c-0.083,0.322-0.182,0.632-0.576,0.703
				C55.416,89.227,55.608,88.992,55.8,88.758z"/>
			<path fill-rule="evenodd" clip-rule="evenodd" fill="#470428" d="M173.019,392.215l-0.21,0.004c0,0-0.212-0.008-0.211-0.008
				c-5.286-7.75-10.633-15.461-15.846-23.26c-4.976-7.445-10.25-14.699-14.714-22.473c-0.707-1.228-1.832-2.148-2.575-3.404
				c-0.839-1.414-0.567-1.77,0.921-2.218c9.27-2.804,18.51-5.706,27.758-8.576c7.542-2.341,15.083-4.684,22.628-7.016
				c0.807-0.249,1.679-0.347,2.224-1.104c0.804-0.651,0.482-1.557,0.517-2.368c0.178-4.217-0.664-8.383-0.532-12.613
				c0.243-7.841-0.416-15.676-0.654-23.508c-0.134-4.412,0.24-8.934-0.822-13.317c-0.004-0.465-0.009-0.931-0.014-1.396
				c0.169-0.047,0.337-0.095,0.503-0.142c0.163,0.02,0.325,0.039,0.488,0.058c1.935,1.77,4.521,2.263,6.828,3.218
				c20.169,8.341,40.375,16.594,60.612,24.773c6.206,2.509,12.289,5.335,18.669,7.418c0.053,0.133,0.091,0.271,0.113,0.411
				c-0.237,0.223-0.473,0.444-0.71,0.665c-5.832,0.581-11.476,2.142-17.197,3.277c-18.922,3.756-37.818,7.646-56.722,11.509
				c-3.226,0.658-6.429,1.433-10.26,2.292c3.741,2.165,7.053,4.114,10.396,6.015c11.946,6.787,23.902,13.56,35.855,20.334
				c0.526,0.297,1.079,0.547,1.065,1.274C218.189,365.048,195.651,378.709,173.019,392.215z"/>
			<path fill-rule="evenodd" clip-rule="evenodd" fill="#2C0328" d="M143.144,304.846c-6.149-1.129-12.3-2.254-18.45-3.388
				c-14.137-2.605-28.279-5.188-42.406-7.839c-7.062-1.324-14.102-2.765-21.144-4.189c-2.395-0.484-4.908-0.281-7.225-1.242
				c-0.174-0.071-0.538,0.312-0.813,0.482c-0.305-0.175-0.611-0.349-0.917-0.522c0.01-0.199,0.021-0.397,0.031-0.597
				c1.973-1.707,4.347-2.85,6.552-4.154c12.022-7.123,24.208-13.976,36.317-20.954c13.283-7.653,26.569-15.303,39.792-23.061
				c2.051-1.205,4.53-1.902,5.921-4.086c0.159-0.056,0.325-0.096,0.475-0.172c0.046-0.022,0.079-0.186,0.054-0.206
				c-1.036-0.833-2.347-0.907-3.562-1.112c-16.398-2.771-32.803-5.493-49.207-8.227c0.162-0.34,0.324-0.68,0.486-1.02
				c2.84-7.83,5.698-15.655,8.516-23.494c5.029-13.998,10.035-28.004,15.049-42.007c0.17,0.168,0.343,0.335,0.514,0.503
				c0.124,0.401,0.223,0.812,0.376,1.202c6.363,16.21,12.712,32.425,19.104,48.625c3.346,8.48,6.768,16.931,10.154,25.395
				c0.002,0.161,0.018,0.32,0.048,0.478c-0.863,1.647-0.019,3.316-0.001,4.965c0.23,21.536-0.485,43.082,0.549,64.609
				L143.144,304.846z"/>
			<path fill-rule="evenodd" clip-rule="evenodd" fill="#470428" d="M89.048,224.558c-0.163,0.339-0.324,0.68-0.486,1.02
				c-11.153,1.474-22.306,2.948-33.458,4.422c0.357,0.486,0.729,0.62,1.108,0.634c5.348,0.193,10.715,0.17,16.041,0.617
				c3.905,0.326,7.807,0.272,11.704,0.489c10.922,0.608,21.834,1.34,32.754,1.952c4.833,0.272,9.713,0.072,14.5,0.667
				c3.196,0.396,6.483-0.183,9.592,0.938c-1.391,2.185-3.87,2.881-5.921,4.086c-13.223,7.758-26.509,15.407-39.792,23.061
				c-12.109,6.979-24.295,13.831-36.317,20.954c-2.205,1.305-4.579,2.447-6.552,4.154c-0.181,0.18-0.36,0.361-0.54,0.54
				c-0.008,0.178-0.016,0.354-0.023,0.531c-0.163-0.35-0.328-0.7-0.492-1.049c0.741-19.283,0.477-38.575,0.525-57.864
				c0.889-0.992,1.068-2.297,1.366-3.486c2.771-11.1,5.435-22.226,8.183-33.331c3.798-15.353,7.644-30.694,11.469-46.04
				c0.721-0.104,1.248-0.289,0.447-1.038c0.529-2.361,1.059-4.722,1.587-7.083c1.792-0.136,1.812,1.331,1.971,2.387
				c0.768,5.137,1.411,10.293,2.116,15.438c0.887,6.476,1.764,12.952,2.698,19.42c0.945,6.549,1.958,13.088,2.935,19.633
				c1.112,7.455,2.177,14.918,3.352,22.364C88.158,220.175,87.866,222.508,89.048,224.558z"/>
			<path fill-rule="evenodd" clip-rule="evenodd" fill="#5E0429" d="M51.656,288.622c0.007-0.178,0.015-0.354,0.023-0.531
				c0.169,0.019,0.339,0.038,0.509,0.057c0.306,0.174,0.612,0.348,0.917,0.522c4.928,3.156,9.945,6.185,14.765,9.498
				c7.559,5.196,15.534,9.704,23.38,14.435c14.237,8.584,28.331,17.396,42.451,26.167c1.398,0.869,3.129,1.294,4.09,2.521
				c-6.999,3.009-13.914,6.019-20.956,8.724c-12.217,4.69-24.397,9.478-36.553,14.321c-1.712,0.683-2.047-0.094-2.489-1.356
				c-3.987-11.404-8.001-22.8-12.009-34.197C61.076,315.396,56.365,302.009,51.656,288.622z"/>
			<path fill-rule="evenodd" clip-rule="evenodd" fill="#6F0529" d="M191.503,272.354c1.063,4.384,0.688,8.905,0.822,13.317
				c0.238,7.832,0.897,15.667,0.654,23.508c-0.132,4.23,0.71,8.396,0.532,12.613c-0.034,0.812,0.287,1.717-0.517,2.368
				c-16.323-6.271-32.648-12.543-48.969-18.821c-0.311-0.12-0.586-0.327-0.879-0.493c-0.002,0,0.212-0.012,0.212-0.012
				c5.294-4.06,10.877-7.732,16.344-11.542c8.117-5.653,16.168-11.411,24.429-16.854
				C186.45,274.908,188.248,272.273,191.503,272.354z"/>
			<path fill-rule="evenodd" clip-rule="evenodd" fill="#FEFEFE" d="M0.456,238.271c-0.005,0.285,0.161,0.359,0.413,0.328
				C0.731,238.488,0.594,238.38,0.456,238.271z"/>
			<path fill-rule="evenodd" clip-rule="evenodd" fill="#070125" d="M74.741,138.732c-0.528,2.361-1.058,4.722-1.587,7.084
				c-0.148,0.345-0.297,0.691-0.447,1.037c-3.826,15.346-7.671,30.687-11.469,46.04c-2.748,11.105-5.412,22.231-8.183,33.331
				c-0.298,1.189-0.477,2.494-1.366,3.486c-2.565-11.831-5.113-23.667-7.704-35.493c-1.243-5.667-2.546-11.322-3.87-16.972
				c-0.425-1.813-0.901-3.605-0.721-5.49c7.015-26.655,14.026-53.31,21.065-79.958c0.222-0.839,0.167-1.897,1.221-2.343
				c-1.614,7.29-3.228,14.58-4.842,21.87c-0.153,0.667-0.307,1.335-0.459,2.002c-0.063,0.325-0.127,0.649-0.19,0.973
				c-0.101,0.535,0.157,0.889,0.591,1.156c0.152,0.153,0.307,0.305,0.46,0.458c6.161,6.089,12.321,12.178,18.48,18.267
				c0.037,0.147,0.081,0.293,0.135,0.434C75.058,135.872,75.244,137.394,74.741,138.732z"/>
			<path fill-rule="evenodd" clip-rule="evenodd" fill="#B10A2D" d="M201.716,61.034c-1.985,2.175-4.221,4.075-6.587,5.827
				c-1.503,1.113-2.284,2.573-2.645,4.408c-1.127,5.741-2.371,11.458-3.568,17.185c-0.575,0.358-1.13,0.748-1.725,1.07
				c-12.504,6.802-24.988,13.643-37.544,20.352c-2.366,1.265-4.534,2.995-7.266,3.547c0.384-3.354,1.825-6.414,2.754-9.614
				c1.798-6.186,4.341-12.142,5.902-18.406c2.035-6.482,4.021-12.98,6.182-19.42c0.211-0.631-0.295-4.235,2.5-1.254
				c0.642,0.684,2.939-0.438,4.182-1.254c3.375-2.22,7.094-1.787,10.58-1.087c3.284,0.659,6.356,0.737,9.511-0.175
				c3.512-1.014,7.083-1.659,10.748-1.695c1.271-0.012,2.194-0.903,3.327-1.195C199.69,58.904,201.597,58.177,201.716,61.034z"/>
			<path fill-rule="evenodd" clip-rule="evenodd" fill="#B10A2D" d="M75.72,134.179c-6.159-6.088-12.319-12.177-18.48-18.267
				c5.5-4.944,12.363-7.488,18.902-10.617c8.415-4.027,17.029-7.648,25.183-12.218c3.222-1.805,6.578-3.397,9.958-4.897
				c3.445-1.528,6.307-3.942,9.313-6.059c2.764-1.946,5.761-1.715,8.692-2.256c1.125-0.208,1.366,0.484,0.587,1.342
				c-0.456,0.502-0.95,0.97-1.434,1.445c-15.865,15.571-31.732,31.138-47.59,46.713c-0.721,0.708-1.357,1.501-2.033,2.256
				c-0.862,0.5-1.548,1.176-2.056,2.031l0.008-0.002c-0.173,0.172-0.347,0.345-0.519,0.518
				C76.075,134.171,75.898,134.176,75.72,134.179z"/>
			<path fill-rule="evenodd" clip-rule="evenodd" fill="#89062B" d="M76.765,133.652c0.508-0.855,1.194-1.531,2.056-2.031
				c0.935,0.135,1.595-0.396,2.312-0.872c11.632-7.743,23.471-15.171,35.085-22.945c11.466-7.675,23.202-14.952,34.82-22.403
				c-1.561,6.264-4.104,12.22-5.902,18.406c-0.929,3.2-2.371,6.26-2.754,9.614c-0.321,0.335-0.642,0.67-0.965,1.006
				c-3.723,0.55-7.201,1.973-10.764,3.056c-14.383,4.371-28.698,8.965-43.09,13.308C84.008,131.863,80.578,133.505,76.765,133.652z"
				/>
			<path fill-rule="evenodd" clip-rule="evenodd" fill="#B10A2D" d="M56.379,113.326c0.152-0.667,0.306-1.334,0.459-2.002
				C57.491,112.174,57.719,112.927,56.379,113.326z"/>
			<path fill-rule="evenodd" clip-rule="evenodd" fill="#5E0429" d="M179.695,50.877c0.498-0.646,1.003-0.685,1.521-0.023
				C180.71,50.861,180.202,50.869,179.695,50.877z"/>
			<path fill-rule="evenodd" clip-rule="evenodd" fill="#B10A2D" d="M56.781,115.455c-0.434-0.267-0.692-0.621-0.591-1.156
				C56.698,114.527,56.802,114.959,56.781,115.455z"/>
			<path fill-rule="evenodd" clip-rule="evenodd" fill="#470428" d="M293.797,324.676c-1.632-0.179-2.01-1.708-2.806-2.703
				c-3.662-4.586-7.225-9.252-10.801-13.905c-0.299-0.389-0.435-0.901-0.647-1.356c7.868-12.128,15.735-24.258,23.603-36.388
				l-0.014,0.013c0.571-0.365,0.916-0.881,1.037-1.544l-0.021,0.015c0.566-0.368,0.908-0.885,1.042-1.54l-0.018,0.015
				c0.569-0.369,0.902-0.893,1.042-1.548c1.51-2.095,3.021-4.192,4.531-6.289c-1.491,5.938-2.977,11.879-4.476,17.815
				c-2.427,9.605-4.688,19.255-7.359,28.792C297.175,312.252,296.182,318.655,293.797,324.676z"/>
			<path fill-rule="evenodd" clip-rule="evenodd" fill="#BE0C2E" d="M310.746,259.444c-1.51,2.097-3.021,4.194-4.531,6.289
				c-1.089,0.026-1.077,0.78-1.042,1.548l0.018-0.015c-1.099,0.013-1.071,0.775-1.042,1.54c0,0,0.021-0.015,0.019-0.015
				c-1.101,0.015-1.074,0.774-1.035,1.544l0.014-0.013c-1.986-0.077-2.428-0.884-1.667-2.765c1.355-3.355,2.134-6.887,2.647-10.47
				c2.244,0.495,4.491,0.965,6.801,1.062C310.868,258.582,310.806,259.014,310.746,259.444z"/>
			<path fill-rule="evenodd" clip-rule="evenodd" fill="#070125" d="M243.201,350.563c-0.187,0.123-0.371,0.25-0.557,0.373
				c-0.043-0.064-0.086-0.129-0.13-0.193c0.222-0.066,0.445-0.134,0.669-0.201L243.201,350.563z"/>
			<path fill-rule="evenodd" clip-rule="evenodd" fill="#CD0D2F" d="M304.126,257.089c-0.514,3.583-1.292,7.114-2.647,10.47
				c-0.761,1.881-0.319,2.688,1.667,2.765c-7.867,12.13-15.734,24.26-23.603,36.388c-0.279-0.005-0.561-0.01-0.84-0.017
				c-0.022-0.142-0.061-0.279-0.113-0.411c0.038-1.168-0.63-2.089-1.139-3.048c-10.049-18.95-20.113-37.894-30.174-56.839
				c0.009-0.493,0.015-0.988,0.023-1.482c0.174-0.368,0.42-0.72,0.507-1.107c1.836-8.352,3.664-16.705,5.471-25.064
				c2.797-12.945,5.576-25.895,8.363-38.842c0.427,0.008,0.87-0.055,1.276,0.035c13.731,3.017,27.458,6.049,41.186,9.078
				l0.062,0.029c-0.515,2.961,0.796,5.722,0.966,8.609c-1.075,0.085-1.543-0.375-1.536-1.474c0.005-0.692,0.377-1.681-0.659-1.942
				c-0.87-0.218-1.336,0.618-1.864,1.136c-2.125,2.08-4.064,4.385-6.38,6.229c-3.35,2.669-5.3,7.033-9.991,8.109
				c-0.727,0.166-1.03,1.037-1.062,1.878c-0.041,1.126,0.366,2.124,0.628,3.185c0.988,4.019,2.672,7.816,0.001,12.201
				c-1.311,2.154-3.054,3.88-4.416,5.929c-3.021,4.547-3.949,10.192-8.12,14.175c-1.968,1.876-1.067,3.545,1.701,4.166
				c2.557,0.574,5.126,1.133,7.717,1.531c4.432,0.681,8.748,2.012,13.249,2.286C297.569,256.072,300.883,256.423,304.126,257.089z"
				/>
			<path fill-rule="evenodd" clip-rule="evenodd" fill="#BE0C2E" d="M294.398,255.06c-4.501-0.274-8.817-1.605-13.249-2.286
				c-2.591-0.398-5.16-0.957-7.717-1.531c-2.769-0.621-3.669-2.29-1.701-4.166c4.171-3.982,5.1-9.627,8.12-14.175
				c1.362-2.049,3.105-3.775,4.416-5.929c2.671-4.385,0.987-8.183-0.001-12.201c-0.262-1.061-0.669-2.058-0.628-3.185
				c0.031-0.842,0.335-1.712,1.062-1.878c4.691-1.076,6.642-5.439,9.991-8.109c2.315-1.844,4.255-4.149,6.38-6.229
				c0.528-0.518,0.994-1.354,1.864-1.136c1.036,0.261,0.664,1.25,0.659,1.942c-0.007,1.099,0.461,1.559,1.537,1.474
				c0.041,2.267,0.441,4.504,0.629,6.76c0.677,8.088,1.617,16.153,2.454,24.228c-0.705-0.098-1.796,0.327-1.929-0.713
				c-0.408-3.211-1.522-1.018-2.355-0.329c-1.11,0.916-2.162,1.905-3.205,2.899c-3.521,3.36-3.905,4.39-1.43,8.675
				c1.736,3.008,0.959,5.399-0.429,8.058C297.476,249.897,296.077,252.554,294.398,255.06z"/>
			<path fill-rule="evenodd" clip-rule="evenodd" fill="#A0082D" d="M308.215,228.638c-0.837-8.074-1.777-16.14-2.454-24.228
				c-0.188-2.256-0.588-4.493-0.629-6.76c-0.171-2.887-1.481-5.647-0.967-8.609c0.977-0.245,1.967-0.449,2.93-0.741
				c3.623-1.101,7.235-2.231,10.852-3.349c4.69-1.48,9.382-2.958,14.07-4.44c0.627-0.198,1.259-0.881,1.894-0.39
				c0.778,0.604,0.542,1.605,0.302,2.363c-0.915,2.897-1.731,5.821-2.604,8.728c-6.348,21.157-12.811,42.282-19.244,63.415
				c-0.266,0.871-0.6,1.725-1.392,2.563C310.052,247.674,309.134,238.155,308.215,228.638z"/>
			<path fill-rule="evenodd" clip-rule="evenodd" fill="#BE0C2E" d="M317.946,184.951c-3.616,1.118-7.229,2.248-10.852,3.349
				c-0.963,0.292-1.953,0.496-2.93,0.741c0,0-0.062-0.028-0.062-0.028c-0.343-5.951-0.515-11.916-1.072-17.847
				c-0.854-9.106-1.35-18.234-1.974-27.354c0.002-0.328,0.006-0.656,0.007-0.984c3.682-6.135,7.354-12.273,11.051-18.398
				c0.518-0.857,1.145-1.649,1.722-2.473c1.665,2.172,1.367,4.83,1.466,7.244c0.187,4.535,0.246,9.058,1.082,13.54
				c0.492,2.648-0.313,5.284-0.06,7.989c0.457,4.845,0.906,9.722,0.602,14.611c-0.358,5.733,0.728,11.421,0.543,17.152
				C317.445,183.306,317.779,184.131,317.946,184.951z"/>
			<path fill-rule="evenodd" clip-rule="evenodd" fill="#BE0C2E" d="M321.815,124.875c0.068,0.149,0.188,0.285,0.181,0.413
				c-0.008,0.126-0.145,0.245-0.224,0.366c-0.065-0.132-0.184-0.265-0.179-0.395C321.595,125.134,321.729,125.013,321.815,124.875z"
				/>
			<path fill-rule="evenodd" clip-rule="evenodd" fill="#CD0D2F" d="M301.064,142.827c-0.001,0.328-0.005,0.656-0.007,0.984
				c-2.071,0.792-3.847,2.097-5.64,3.343c-1.066,0.74-1.533,0.677-1.51-0.659c0.024-1.342-0.101-2.672,0.326-4.018
				c0.564-1.786,0.092-3.019-1.834-4.046c-9.438-5.034-18.774-10.255-28.133-15.437c-1.448-0.801-3.096-2.018-2.962-3.577
				c0.338-3.958-2.322-5.957-4.682-8.217c-0.684-0.657-1.229-2.065-2.321-1.606c-1.274,0.535,1.271,1.359,0.153,2.219
				c-0.304-0.283-0.686-0.516-0.9-0.854c-5.417-8.528-10.889-17.021-16.169-25.631c-1.521-2.479-3.551-4.703-4.343-7.601
				c0.647,0.181,1.353,0.251,1.932,0.559c5.098,2.713,10.115,5.581,15.275,8.173c3.767,1.894,7.128,4.628,11.376,5.557l-0.009-0.005
				c0.064,1.011,0.807,1.016,1.547,1.022l-0.011-0.008c0.222,0.42,0.608,0.507,1.036,0.516l-0.012-0.011
				c0.175,0.173,0.349,0.346,0.524,0.519l-0.013-0.009c0.229,0.405,0.617,0.496,1.037,0.531c1.8,1.499,3.561,3.076,6.137,3.027
				c0.171,0.298,0.343,0.596,0.516,0.892c2.023,4.465,5.017,8.354,7.634,12.461c6.262,9.82,12.652,19.558,19.013,29.314
				C299.619,141.173,300.382,141.976,301.064,142.827z"/>
			<path fill-rule="evenodd" clip-rule="evenodd" fill="#A0082D" d="M261.627,92.016c-4.248-0.929-7.609-3.663-11.376-5.557
				c-5.16-2.592-10.178-5.46-15.275-8.173c-0.579-0.308-1.284-0.378-1.934-0.559c-0.62-1.041-1.626-1.02-2.649-0.943
				c-3.425-1.547-7.176-1.755-10.782-2.523c-7.831-1.668-15.7-3.164-23.493-5.187c4.868,0.429,9.735,0.834,14.599,1.294
				c4.383,0.413,8.761,0.868,13.137,1.337c2.69,0.289,5.375,0.642,8.061,0.965c3.401,1.394,6.186,3.788,9.261,5.701
				c6.69,4.161,13.234,8.553,19.827,12.867C261.265,91.412,261.421,91.753,261.627,92.016z"/>
			<path fill-rule="evenodd" clip-rule="evenodd" fill="#A0082D" d="M263.165,93.032c-0.74-0.006-1.482-0.011-1.547-1.022
				C262.365,92.008,262.88,92.348,263.165,93.032z"/>
			<path fill-rule="evenodd" clip-rule="evenodd" fill="#A0082D" d="M265.727,94.569c-0.42-0.035-0.809-0.126-1.037-0.531
				C265.123,94.05,265.514,94.139,265.727,94.569z"/>
			<path fill-rule="evenodd" clip-rule="evenodd" fill="#A0082D" d="M264.19,93.54c-0.428-0.008-0.814-0.096-1.036-0.516
				C263.583,93.03,263.969,93.119,264.19,93.54z"/>
			<path fill-rule="evenodd" clip-rule="evenodd" fill="#A0082D" d="M264.703,94.047c-0.176-0.173-0.35-0.345-0.524-0.519
				C264.353,93.702,264.527,93.875,264.703,94.047z"/>
			<path fill-rule="evenodd" clip-rule="evenodd" fill="#FE2131" d="M230.392,76.784c1.023-0.077,2.029-0.097,2.649,0.943
				c0.794,2.898,2.824,5.121,4.345,7.601c5.28,8.61,10.752,17.104,16.169,25.631c0.215,0.338,0.597,0.571,0.9,0.854
				c0.286,1.566,1.621,2.543,2.245,3.916c0.861,1.896,2.636,3.404,2.826,5.546c0.224,2.508,0.417,5.049,0.474,7.547
				c0.211,9.356,0.784,18.699,1.006,28.046c0.184,7.677,0.915,15.344,0.635,23.032c-2.787,12.947-5.566,25.897-8.363,38.842
				c-1.807,8.359-3.635,16.713-5.471,25.064c-0.087,0.388-0.333,0.739-0.507,1.107c-0.163-0.282-0.424-0.549-0.478-0.851
				c-1.604-9.243-3.128-18.499-4.79-27.73c-2.464-13.683-5.028-27.349-7.548-41.022c4.218-9.207,8.472-18.397,12.639-27.626
				c3.718-8.238,7.256-16.559,11.058-24.757c1.162-2.502,0.159-2.623-1.87-2.489c-8.123,0.537-16.246,1.091-24.377,1.517
				c-8.058,0.423-16.149,0.416-24.173,1.166c-3.712,0.348-7.46-0.055-11.158,0.792c-1.813,0.415-1.428,0.92-0.651,1.88
				c1.326,1.642,2.696,3.25,3.982,4.921c10.35,13.446,20.713,26.881,30.969,40.397c0.965,1.273,2.727,2.201,2.558,4.197
				c-0.337-0.004-0.674-0.007-1.013-0.01c-0.443-1.771-2.107-2.314-3.385-3.171c-7.235-4.858-14.519-9.643-21.787-14.449
				c-5.146-3.402-10.299-6.791-15.436-10.204c-0.44-0.292-0.828-0.664-1.35-0.282c-0.634,0.461-0.428,1.036-0.09,1.567
				c0.27,0.425,0.64,0.793,0.879,1.232c1.772,3.241,4.554,5.685,7.07,8.255c4.449,4.543,7.745,10.369,14.016,12.988
				c0.443,0.186,0.566,0.597,0.619,1.032c-2.646,0.158-5.204-0.493-7.801-0.797c-6.614-0.774-13.187-1.917-19.851-2.26
				c-3.956-0.676-7.903-1.402-11.87-2.016c-4.743-0.735-9.5-1.375-14.251-2.057c0.367-2.01-1.68-2.068-2.555-3.064
				c-3.227-3.672-5.815-7.821-8.772-11.69c-4.697-6.143-8.813-12.719-13.82-18.653c-0.875-1.037-1.369-3.175-2.139,0.007
				c-0.217,0.903-1.114,0.917-1.905,0.901c0.438-0.718,0.868-1.44,1.314-2.152c3.359-5.353,6.722-10.704,10.081-16.057
				c0.323-0.336,0.644-0.671,0.965-1.006c2.732-0.552,4.9-2.283,7.266-3.547c12.556-6.709,25.04-13.549,37.544-20.352
				c0.595-0.322,1.149-0.712,1.725-1.07c7.919-2.147,15.838-4.292,23.758-6.441c4.573-1.241,9.153-2.464,13.718-3.742
				C227.76,77.887,229.21,77.682,230.392,76.784z"/>
			<path fill-rule="evenodd" clip-rule="evenodd" fill="#89062B" d="M247.277,246.396c10.061,18.945,20.125,37.889,30.174,56.839
				c0.509,0.959,1.177,1.88,1.139,3.048c-6.38-2.084-12.463-4.91-18.669-7.419c-20.237-8.18-40.443-16.433-60.612-24.773
				c-2.308-0.955-4.894-1.448-6.828-3.219c0.296-0.585,0.892-0.754,1.429-0.989c5.436-2.376,10.872-4.747,16.312-7.118
				c8.393-3.658,16.826-7.223,25.157-11.015c3.831-1.745,7.982-2.853,11.41-5.433C246.947,246.357,247.111,246.385,247.277,246.396z
				"/>
			<path fill-rule="evenodd" clip-rule="evenodd" fill="#B10A2D" d="M246.788,246.317c-3.428,2.58-7.579,3.688-11.41,5.433
				c-8.331,3.792-16.765,7.356-25.157,11.015c-5.439,2.371-10.876,4.742-16.312,7.118c-0.537,0.235-1.133,0.404-1.429,0.989
				c-0.163-0.018-0.325-0.037-0.488-0.057c-0.179-0.17-0.356-0.34-0.534-0.51l0.002,0.01c0.596-4.244,0.809-8.516,1.069-12.788
				c0.179-2.936,0.406-5.866,0.575-8.803c0.346-6.026,0.941-12.039,1.437-18.056c0.018-1.607-0.118-3.232,0.076-4.817
				c1.088-8.855,1.771-17.736,1.989-26.652c0.164-0.024,0.331-0.036,0.5-0.033c7.121,6.744,14.235,13.497,21.37,20.228
				c3.136,2.959,6.382,5.808,9.462,8.824C234.16,234.314,240.884,239.897,246.788,246.317z"/>
			<path fill-rule="evenodd" clip-rule="evenodd" fill="#89062B" d="M191.503,272.354c-3.255-0.08-5.053,2.555-7.371,4.084
				c-8.261,5.443-16.312,11.201-24.429,16.854c-5.467,3.81-11.05,7.482-16.344,11.542c-1.034-21.527-0.319-43.073-0.549-64.609
				c-0.018-1.648-0.862-3.317,0.001-4.965c0.711,0.445,1.429,0.882,2.135,1.337c2.605,1.674,4.762,3.983,7.625,5.293
				c0.443,0.388,0.862,0.81,1.334,1.158c8.639,6.4,17.236,12.852,25.945,19.156c3.82,2.767,7.352,5.958,11.61,8.111l-0.002-0.01
				c0.011,0.217,0.022,0.435,0.031,0.651C191.494,271.423,191.499,271.889,191.503,272.354z"/>
			<path fill-rule="evenodd" clip-rule="evenodd" fill="#BE0C2E" d="M191.489,270.957c-0.009-0.217-0.021-0.435-0.031-0.651
				c0.178,0.17,0.355,0.34,0.534,0.51C191.826,270.862,191.658,270.91,191.489,270.957z"/>
			<path fill-rule="evenodd" clip-rule="evenodd" fill="#FE2F30" d="M197.106,199.167c-0.169-0.003-0.336,0.008-0.501,0.033
				c-5.935,3.83-11.979,7.507-17.779,11.528c-7.78,5.394-15.518,10.845-23.462,16c-4.181,2.713-8.124,5.797-12.601,8.054
				c-3.387-8.464-6.808-16.915-10.154-25.395c-6.392-16.2-12.742-32.415-19.104-48.625c-0.154-0.391-0.253-0.801-0.376-1.202
				c0.625-0.74,1.343-0.38,2.104-0.258c2.921,0.467,5.85,0.885,8.781,1.267c5.869,0.762,11.745,1.474,17.611,2.234
				c5.865,0.76,11.727,1.554,17.589,2.333c4.751,0.681,9.508,1.322,14.251,2.057c3.967,0.614,7.914,1.34,11.87,2.016
				c-1.57,0.638-0.807,2.247-1.398,3.321c-2.536,4.605-3.433,9.86-5.742,14.561c-0.93,1.892-0.241,3.032,1.588,3.738
				C185.782,193.146,191.358,196.33,197.106,199.167z"/>
			<path fill-rule="evenodd" clip-rule="evenodd" fill="#5E0429" d="M74.741,138.732c0.503-1.338,0.317-2.86,1.115-4.118
				c0.448,0.229,0.924,0.414,1.34,0.69c8.388,5.593,16.734,11.248,25.167,16.771c3.385,2.216,6.543,4.8,10.278,6.471
				c-0.01,0.17-0.019,0.341-0.027,0.511c-5.015,14.002-10.02,28.009-15.049,42.007c-2.818,7.839-5.676,15.664-8.516,23.494
				c-1.182-2.05-0.889-4.383-1.235-6.584c-1.175-7.446-2.24-14.909-3.352-22.364c-0.977-6.545-1.99-13.084-2.935-19.633
				c-0.935-6.468-1.812-12.944-2.698-19.42c-0.706-5.145-1.348-10.301-2.116-15.438C76.552,140.063,76.533,138.596,74.741,138.732z"
				/>
			<path fill-rule="evenodd" clip-rule="evenodd" fill="#CD0D2F" d="M142.762,234.782c4.478-2.257,8.42-5.341,12.601-8.054
				c7.945-5.155,15.682-10.607,23.462-16c5.801-4.021,11.845-7.699,17.779-11.528c-0.217,8.916-0.9,17.796-1.988,26.652
				c-0.194,1.585-0.059,3.209-0.076,4.817c-1.259-0.694-2.52-1.267-4.044-0.943c-2.729,0.579-5.56,0.918-8.199,1.645
				c-9.923,2.729-20.105,3.836-30.214,5.421c-1.711,0.268-1.974,1.165-0.867,2.436c0.684,0.785,1.245,1.604,1.354,2.663
				c-2.862-1.31-5.02-3.619-7.625-5.293c-0.706-0.455-1.424-0.892-2.135-1.337C142.781,235.102,142.765,234.943,142.762,234.782z"/>
			<path fill-rule="evenodd" clip-rule="evenodd" fill="#EE1230" d="M112.613,159.057c0.009-0.17,0.018-0.341,0.027-0.511
				c1.438-0.771,1.937-2.272,2.766-3.511c4.069-6.077,7.664-12.46,12.067-18.32c1.057-0.075,1.029-0.83,1.01-1.582
				c-0.064-0.888,0.743-1.315,1.07-1.997c0.157-0.168,0.316-0.335,0.473-0.503l-0.005,0.002c0.792,0.016,1.688,0.002,1.906-0.901
				c0.77-3.182,1.264-1.044,2.139-0.007c5.007,5.934,9.123,12.51,13.82,18.653c2.957,3.87,5.545,8.018,8.772,11.69
				c0.875,0.996,2.922,1.054,2.555,3.064c-5.863-0.78-11.725-1.574-17.589-2.333c-5.866-0.761-11.742-1.472-17.611-2.234
				c-2.932-0.382-5.86-0.799-8.781-1.267c-0.761-0.122-1.479-0.481-2.104,0.258C112.956,159.393,112.783,159.225,112.613,159.057z"
				/>
			<path fill-rule="evenodd" clip-rule="evenodd" fill="#89062B" d="M140.802,235.295c-3.108-1.121-6.396-0.542-9.592-0.938
				c-4.787-0.595-9.667-0.394-14.5-0.667c-10.92-0.612-21.832-1.343-32.754-1.952c-3.897-0.217-7.799-0.163-11.704-0.489
				c-5.326-0.447-10.693-0.424-16.041-0.617c-0.378-0.014-0.75-0.147-1.108-0.634c11.153-1.474,22.305-2.948,33.458-4.422
				c16.404,2.734,32.809,5.457,49.207,8.227c1.214,0.205,2.525,0.279,3.562,1.112c0.025,0.021-0.008,0.184-0.054,0.206
				C141.127,235.199,140.961,235.24,140.802,235.295z"/>
			<path fill-rule="evenodd" clip-rule="evenodd" fill="#070125" d="M52.188,288.147c-0.17-0.019-0.339-0.038-0.509-0.057
				c0.18-0.179,0.359-0.36,0.54-0.54C52.209,287.75,52.198,287.948,52.188,288.147z"/>
			<path fill-rule="evenodd" clip-rule="evenodd" fill="#5E0429" d="M72.707,146.853c0.15-0.346,0.298-0.691,0.447-1.037
				C73.955,146.564,73.428,146.749,72.707,146.853z"/>
			<path fill-rule="evenodd" clip-rule="evenodd" fill="#A0082D" d="M129.553,133.137c-0.327,0.681-1.135,1.109-1.07,1.997
				c-0.634,0.341-1.022,0.836-1.01,1.582c-4.403,5.86-7.998,12.243-12.067,18.32c-0.83,1.239-1.329,2.74-2.766,3.511
				c-3.735-1.671-6.894-4.255-10.278-6.471c-8.433-5.523-16.779-11.178-25.167-16.771c-0.416-0.276-0.892-0.462-1.34-0.69
				c-0.054-0.142-0.098-0.287-0.135-0.435c0.177-0.003,0.354-0.008,0.533-0.011c0.172-0.173,0.346-0.346,0.519-0.518l-0.008,0.002
				c3.813-0.147,7.243-1.789,10.797-2.861c14.392-4.343,28.707-8.937,43.09-13.308c3.563-1.083,7.041-2.506,10.764-3.056
				c-3.359,5.353-6.722,10.704-10.081,16.057c-0.446,0.712-0.876,1.434-1.314,2.152c0,0,0.005-0.002,0.005-0.002
				C129.869,132.802,129.711,132.969,129.553,133.137z"/>
			<path fill-rule="evenodd" clip-rule="evenodd" fill="#89062B" d="M76.773,133.65c-0.173,0.172-0.347,0.345-0.519,0.518
				C76.426,133.995,76.599,133.822,76.773,133.65z"/>
			<path fill-rule="evenodd" clip-rule="evenodd" fill="#CD0D2F" d="M305.173,267.281c-0.035-0.768-0.047-1.521,1.042-1.548
				C306.075,266.389,305.742,266.912,305.173,267.281z"/>
			<path fill-rule="evenodd" clip-rule="evenodd" fill="#CD0D2F" d="M304.148,268.807c-0.029-0.765-0.057-1.527,1.042-1.54
				C305.056,267.922,304.715,268.438,304.148,268.807z"/>
			<path fill-rule="evenodd" clip-rule="evenodd" fill="#CD0D2F" d="M303.132,270.336c-0.039-0.77-0.065-1.529,1.035-1.544
				C304.048,269.455,303.703,269.971,303.132,270.336z"/>
			<path fill-rule="evenodd" clip-rule="evenodd" fill="#FE4031" d="M197.106,199.167c-5.748-2.837-11.324-6.021-17.325-8.338
				c-1.829-0.706-2.518-1.846-1.588-3.738c2.31-4.701,3.206-9.956,5.742-14.561c0.592-1.074-0.172-2.683,1.398-3.321
				c6.664,0.343,13.236,1.486,19.851,2.26c2.597,0.304,5.155,0.955,7.801,0.797c6.354,1.852,12.977,2.02,19.463,3.032
				c0.339,0.003,0.676,0.006,1.013,0.01c0.343,0.001,0.683,0.002,1.023,0.003c2.521,13.673,5.085,27.339,7.549,41.022
				c1.662,9.232,3.187,18.488,4.79,27.73c0.054,0.302,0.314,0.568,0.478,0.851c-0.009,0.494-0.015,0.989-0.023,1.482
				c-0.166-0.012-0.33-0.039-0.489-0.079c-5.904-6.42-12.628-12.003-18.85-18.098c-3.08-3.017-6.326-5.865-9.462-8.824
				C211.342,212.664,204.227,205.911,197.106,199.167z"/>
			<path fill-rule="evenodd" clip-rule="evenodd" fill="#EE1230" d="M261.641,179.9c0.28-7.688-0.451-15.354-0.635-23.032
				c-0.222-9.347-0.795-18.689-1.006-28.046c-0.057-2.498-0.25-5.039-0.474-7.547c-0.19-2.142-1.965-3.649-2.826-5.546
				c-0.624-1.373-1.959-2.35-2.245-3.916c1.118-0.859-1.428-1.684-0.153-2.219c1.093-0.459,1.638,0.949,2.321,1.606
				c2.359,2.26,5.02,4.259,4.682,8.217c-0.134,1.56,1.514,2.776,2.962,3.577c9.358,5.182,18.694,10.403,28.133,15.437
				c1.926,1.027,2.398,2.26,1.834,4.046c-0.427,1.346-0.302,2.676-0.326,4.018c-0.023,1.336,0.443,1.399,1.51,0.659
				c1.793-1.246,3.568-2.551,5.64-3.343c0.624,9.12,1.12,18.248,1.974,27.354c0.558,5.931,0.729,11.896,1.072,17.847
				c-13.728-3.029-27.454-6.062-41.186-9.078C262.511,179.845,262.068,179.908,261.641,179.9z"/>
			<path fill-rule="evenodd" clip-rule="evenodd" fill="#FE2F30" d="M234.484,175.311c-0.341-0.001-0.681-0.002-1.023-0.003
				c0.169-1.996-1.593-2.924-2.558-4.197c-10.256-13.516-20.619-26.951-30.969-40.397c-1.286-1.671-2.656-3.279-3.982-4.921
				c-0.776-0.96-1.161-1.465,0.651-1.88c3.698-0.846,7.446-0.444,11.158-0.792c8.023-0.75,16.115-0.743,24.173-1.166
				c8.131-0.425,16.254-0.979,24.377-1.517c2.029-0.134,3.032-0.014,1.87,2.489c-3.802,8.199-7.34,16.519-11.058,24.757
				C242.957,156.914,238.703,166.104,234.484,175.311z"/>
			<path fill-rule="evenodd" clip-rule="evenodd" fill="#FE2F30" d="M232.448,175.298c-6.486-1.012-13.109-1.18-19.463-3.032
				c-0.053-0.435-0.176-0.846-0.619-1.032c-6.271-2.62-9.566-8.445-14.016-12.988c-2.517-2.57-5.298-5.014-7.07-8.255
				c-0.239-0.439-0.609-0.807-0.879-1.232c-0.338-0.531-0.544-1.105,0.09-1.567c0.521-0.382,0.909-0.01,1.35,0.282
				c5.137,3.413,10.289,6.802,15.436,10.204c7.269,4.806,14.552,9.591,21.787,14.449
				C230.341,172.984,232.005,173.526,232.448,175.298z"/>
			<path fill-rule="evenodd" clip-rule="evenodd" fill="#BE0C2E" d="M152.57,241.89c-0.108-1.06-0.67-1.878-1.354-2.663
				c-1.107-1.271-0.845-2.168,0.867-2.436c10.109-1.584,20.292-2.692,30.214-5.421c2.64-0.727,5.471-1.065,8.199-1.645
				c1.524-0.324,2.785,0.249,4.044,0.943c-0.495,6.017-1.091,12.03-1.437,18.056c-0.169,2.937-0.396,5.867-0.575,8.803
				c-0.261,4.272-0.474,8.544-1.069,12.788c-4.259-2.153-7.79-5.345-11.61-8.111c-8.709-6.305-17.307-12.756-25.945-19.156
				C153.432,242.699,153.013,242.277,152.57,241.89z"/>
			<path fill-rule="evenodd" clip-rule="evenodd" fill="#FE2131" d="M127.473,136.715c-0.013-0.746,0.375-1.241,1.01-1.582
				C128.502,135.886,128.531,136.641,127.473,136.715z"/>
			<path fill-rule="evenodd" clip-rule="evenodd" fill="#FE2131" d="M129.553,133.137c0.157-0.168,0.316-0.335,0.473-0.503
				C129.869,132.802,129.711,132.969,129.553,133.137z"/>
		</g>
	</g>
	<g>
		<g>
			<g>
				<g>
					<path fill="#471111" d="M144.221,223.222c0,0,1.254-1.94-1.03-3.766c0,0,3.794-3.854,7.341-2.969c0,0,2.911-0.115,2.256,2.343
						l-1.343,3.998"/>
					<g>
						<path fill="#471111" d="M346.491,189.874h-235.16c-2.069,0-3.536,0.254-4.401,0.756c-0.882,0.501-1.604,1.521-2.168,3.046
							l-0.409,1.038l-7.085,17.82h-6.819c-0.659,0-1.275,0.107-1.869,0.267c-3.31,0.166-6.658,0.75-10.045,1.809
							c-4.024,1.255-7.557,2.951-10.573,5.091c-3.575,2.565-6.347,5.617-8.33,9.156c-1.979,3.55-2.967,7.268-2.967,11.151
							c0,4.999,1.666,9.135,5.014,12.422c3.355,3.285,7.569,4.925,12.664,4.925c2.056,0,4.016-0.286,5.858-0.833l-4.858,11.966
							H61.378c-4.985,0-8.925,0.838-11.839,2.518c-2.236,1.308-4.012,3.142-5.323,5.502c-1.303,2.356-1.95,4.909-1.95,7.654
							c0,4.295,1.526,7.824,4.573,10.603c3.057,2.772,6.912,4.156,11.576,4.156c5.709,0,10.789-2.041,15.242-6.123
							c1.685-1.544,3.048-3.167,4.12-4.868c1.063-1.71,2.532-4.635,4.398-8.767l0.481-1.121h5.879
							c8.975,0,15.704-1.436,20.155-4.316c3.309-2.14,5.966-4.978,7.979-8.535c2.006-3.562,3.016-7.196,3.016-10.904
							c0-5.778-2.436-9.861-7.318-12.235c3.605-1.247,6.473-3.346,8.622-6.281c1.045-1.438,1.804-2.985,2.321-4.605
							c0.222,2.482,0.995,4.571,2.401,6.208c1.657,1.931,3.841,2.891,6.556,2.891h3.803l-7.895,19.417
							c-0.71,1.772-1.071,3.04-1.071,3.803c0,1.448,0.535,2.605,1.593,3.465c1.055,0.864,2.494,1.292,4.324,1.292h6.639
							c1.975,0,3.502-0.414,4.597-1.248c1.092-0.846,1.638-2.008,1.638-3.509c0-2.192-1.558-3.288-4.685-3.288h-3.876l8.133-20.001
							c0.227,0.018,0.428,0.069,0.674,0.069h4.724c1.941,0,3.477-0.422,4.58-1.271c1.106-0.849,1.658-2.028,1.658-3.528
							c0-2.161-1.543-3.244-4.644-3.244h-3.749l2.981-7.356l0.411-0.992c0.297-0.753,0.443-1.428,0.5-2.055l1.102-2.739l0.415-1
							c0.387-0.959,0.587-1.783,0.587-2.473c0-1.007-0.366-1.859-1.092-2.55c-0.723-0.684-1.63-1.034-2.71-1.034
							c-1.991,0-3.609,0.925-4.838,2.776c-1.443-2.193-3.75-3.289-6.9-3.289c-4.109,0-7.796,1.864-11.063,5.592
							c-2.62,2.995-4.16,6.32-4.674,9.959h-9.718c-0.011,1.192-0.348,2.481-1.005,3.875c-0.681,1.438-1.523,2.61-2.541,3.521
							c-1.92,1.729-4.747,2.594-8.479,2.594l-2.399,0.038l6.124-14.999h0.597c0.274,0,0.489,0.015,0.749,0.019
							c0.248-0.25,0.492-0.5,0.743-0.746h2.725h0.959c1.646,0,3.028-0.509,4.15-1.528c1.124-1.027,1.683-2.274,1.683-3.751
							c0-2.363-1.382-3.542-4.139-3.542h-0.962h-3.921c-0.083,0-0.154-0.008-0.225-0.008h-0.61l5.646-13.841h59.987l-13.99,34.485
							l-0.402,0.993c-0.399,0.964-0.59,1.813-0.59,2.549c0,0.988,0.363,1.826,1.101,2.513c0.342,0.328,0.733,0.56,1.153,0.734
							c-2.751,0.764-5.287,2.452-7.616,5.109c-3.254,3.73-4.886,7.962-4.886,12.68c0,3.123,0.832,5.657,2.489,7.585
							c1.662,1.937,3.837,2.898,6.556,2.898h4.206c1.725,0,3.501-0.821,5.35-2.472c0.766,1.65,2.208,2.472,4.32,2.472h4.724
							c1.947,0,3.469-0.428,4.576-1.273c1.111-0.843,1.66-2.018,1.66-3.523c0-2.161-1.542-3.248-4.647-3.248h-4.058l5.313-13.145
							l0.404-0.996c0.395-0.959,0.595-1.785,0.595-2.474c0-1.01-0.371-1.856-1.091-2.546c-0.39-0.372-0.84-0.633-1.329-0.805
							c1.771-0.085,3.482-0.697,5.131-1.884c5.075-3.665,7.605-8.784,7.605-15.359c0-3.396-0.884-6.155-2.648-8.285
							c-1.78-2.126-4.096-3.193-6.951-3.193c-0.854,0-1.845,0.172-2.946,0.513l5.423-13.329h162.549h1
							c1.619,0,2.994-0.506,4.135-1.53c1.128-1.016,1.701-2.243,1.701-3.669C351.633,191.079,349.922,189.874,346.491,189.874z
							 M65.976,286.104c-2.185,1.927-4.494,2.897-6.92,2.897c-1.623,0-3.002-0.521-4.14-1.563c-1.138-1.038-1.692-2.304-1.692-3.796
							c0-3.735,2.615-5.603,7.833-5.603H71.46C69.996,281.48,68.17,284.161,65.976,286.104z M134.481,222.106
							c1.697-2.094,3.447-3.14,5.244-3.14c0.906,0,1.688,0.248,2.332,0.735c0.666,0.496,0.987,1.073,0.987,1.74
							c0,0.564-0.171,1.265-0.512,2.104l-2.587,6.385c-0.662,1.65-2.007,2.477-4.027,2.477h-0.917c-2.051,0-3.067-1.265-3.067-3.802
							C131.934,226.364,132.787,224.194,134.481,222.106z M74.969,247.798c-2.284,0-4.2-0.852-5.735-2.551
							c-1.542-1.693-2.308-3.798-2.308-6.31c0-4.673,2.428-8.873,7.308-12.588c3.221-2.454,7.237-3.999,12.058-4.635
							c0.634,0.245,1.396,0.377,2.322,0.377h4.779l-5.319,13.044C84.651,243.578,80.289,247.798,74.969,247.798z M106.87,248.249
							c1.562,1.07,2.339,2.908,2.339,5.521c0,2.212-0.593,4.412-1.778,6.596c-1.183,2.185-2.729,3.904-4.623,5.162
							c-2.954,1.974-7.29,2.96-12.993,2.96h-3.239l8.837-21.835h3.315C102.594,246.652,105.306,247.184,106.87,248.249z
							 M166.87,251.519l-2.586,6.393c-0.66,1.649-2.005,2.472-4.018,2.472h-0.928c-2.034,0-3.061-1.267-3.061-3.803
							c0-2.244,0.843-4.404,2.544-6.5c1.699-2.091,3.45-3.137,5.244-3.137c0.907,0,1.692,0.243,2.348,0.736
							c0.653,0.493,0.977,1.071,0.977,1.734C167.389,249.983,167.213,250.686,166.87,251.519z M170.417,242.774
							c-1.288-1.94-3.276-2.966-5.891-3.192c0.794-0.44,1.449-1.076,1.958-1.942c1.723,1.755,3.802,2.624,6.242,2.624h0.878
							C172.353,240.646,171.288,241.463,170.417,242.774z M177.558,218.813c1.033,0,1.868,0.361,2.505,1.058
							c0.642,0.698,0.968,1.604,0.968,2.71c0,1.431-0.424,3.041-1.278,4.838c-0.849,1.794-1.836,3.152-2.964,4.059
							c-0.812,0.662-1.814,0.998-2.994,0.998c-1.655,0-3.087-0.788-4.314-2.361l2.474-6.099
							C173.345,220.556,175.22,218.813,177.558,218.813z"/>
						<path fill="#471111" d="M210.106,209.015c0.992-0.999,1.495-2.207,1.495-3.635c0-1.428-0.503-2.64-1.495-3.634
							c-1-0.996-2.219-1.495-3.641-1.495c-1.429,0-2.637,0.499-3.64,1.495c-0.994,0.994-1.495,2.206-1.495,3.634
							c0,1.428,0.501,2.636,1.495,3.635c1.003,1,2.211,1.499,3.64,1.499C207.887,210.514,209.106,210.015,210.106,209.015z"/>
						<path fill="#471111" d="M216.843,238.826c1.405,0.963,4.108,1.438,8.12,1.438c2.459,0,4.372-0.188,5.739-0.57
							c1.371-0.385,2.686-1.076,3.971-2.084c1.921-1.55,3.482-3.621,4.688-6.219c1.203-2.604,1.802-5.211,1.802-7.845
							c0-3.497-1.144-6.376-3.441-8.638c-2.307-2.266-5.246-3.396-8.811-3.396c-4.606,0-8.592,1.711-11.966,5.128
							c-3.368,3.422-5.057,7.478-5.057,12.147C211.888,233.216,213.551,236.562,216.843,238.826z M223.038,222.067
							c1.51-1.795,3.167-2.698,4.983-2.698c1.311,0,2.369,0.434,3.177,1.298c0.817,0.855,1.218,1.988,1.218,3.391
							c0,2.439-0.833,4.604-2.509,6.497c-1.007,1.159-2.451,1.741-4.314,1.741c-3.207,0-4.8-1.434-4.8-4.283
							C220.793,225.845,221.54,223.862,223.038,222.067z"/>
						<path fill="#471111" d="M214.638,260.195h-4.434l4.026-9.932c0.541-1.354,0.813-2.593,0.813-3.726
							c0-2.04-0.747-3.731-2.252-5.059c-1.307-1.161-2.966-1.786-4.905-1.93c0.32-0.154,0.618-0.33,0.885-0.536
							c1.104-0.842,1.648-2.013,1.648-3.507c0-2.191-1.56-3.286-4.657-3.286h-4.172l5.279-13.071
							c0.663-1.624,1.001-2.827,1.001-3.616c0-0.963-0.382-1.786-1.127-2.478c-0.745-0.684-1.645-1.034-2.681-1.034
							c-2.509,0-4.33,1.394-5.461,4.175l-0.413,1.04l-6.08,14.983c-0.52,1.253-0.785,2.283-0.785,3.102
							c0,1.523,0.622,2.726,1.869,3.615c0.849,0.596,1.927,0.981,3.188,1.175c-0.285-0.049-0.577-0.104-0.907-0.104
							c-2.311,0-3.946,1.19-4.904,3.573l-7.462,18.383l-0.404,1.006c-0.396,0.955-0.584,1.78-0.584,2.461
							c0,0.94,0.365,1.727,1.101,2.367c0.736,0.64,1.643,0.963,2.701,0.963c2.586,0,4.517-1.629,5.831-4.871l4.357-10.709
							c1.549-3.813,3.591-5.725,6.126-5.725c0.786,0,1.433,0.215,1.941,0.634c0.505,0.417,0.741,0.923,0.714,1.513
							c-0.024,0.52-0.206,1.192-0.56,2.03l-3.247,8.048c-0.689,1.673-1.025,2.927-1.025,3.763c0,1.381,0.506,2.526,1.531,3.437
							c1.017,0.913,2.282,1.36,3.782,1.36h7.712c1.946,0,3.467-0.414,4.581-1.248c1.102-0.846,1.661-2.008,1.661-3.509
							C219.328,261.291,217.764,260.195,214.638,260.195z M199.538,242.513c-0.596-1.233-1.498-2.006-2.679-2.323
							c0.457,0.052,0.937,0.074,1.45,0.074h5.043C202.113,240.768,200.841,241.516,199.538,242.513z"/>
						<path fill="#471111" d="M243.399,260.195h-6.978c-2.567,0-4.381-0.367-5.447-1.094c-1.076-0.717-1.606-1.957-1.606-3.705
							c0-2.091,0.661-3.987,1.975-5.685c1.32-1.699,2.775-2.545,4.379-2.545c1.698,0,2.543,0.855,2.543,2.581
							c0,0.241-0.013,0.503-0.035,0.772c0,0.227,0,0.5,0,0.816c0,2.116,1.132,3.17,3.397,3.17c1.421,0,2.596-0.581,3.505-1.751
							c0.911-1.168,1.373-2.663,1.373-4.489c0-2.604-0.912-4.719-2.741-6.347c-1.82-1.626-4.19-2.434-7.087-2.434
							c-4.277,0-8.013,1.692-11.183,5.096c-3.178,3.391-4.762,7.394-4.762,11.998c0,3.44,0.97,6.252,2.893,8.417
							c1.943,2.16,4.443,3.243,7.517,3.243h10.709c1.913,0,3.438-0.428,4.557-1.273c1.118-0.843,1.682-2.014,1.682-3.483
							C248.089,261.291,246.515,260.195,243.399,260.195z"/>
						<path fill="#471111" d="M266.547,239.486c-4.604,0-8.588,1.712-11.963,5.132c-3.364,3.42-5.063,7.47-5.063,12.146
							c0,4.429,1.65,7.775,4.957,10.039c1.393,0.96,4.104,1.437,8.117,1.437c2.458,0,4.375-0.188,5.734-0.569
							c1.368-0.381,2.693-1.08,3.98-2.084c1.918-1.554,3.475-3.626,4.68-6.226c1.213-2.59,1.814-5.206,1.814-7.843
							c0-3.496-1.152-6.377-3.456-8.638C273.048,240.619,270.114,239.486,266.547,239.486z M267.538,258.536
							c-1.006,1.153-2.444,1.73-4.321,1.73c-3.189,0-4.795-1.426-4.795-4.279c0-2.165,0.747-4.143,2.254-5.94
							c1.502-1.8,3.163-2.699,4.986-2.699c1.301,0,2.356,0.43,3.175,1.292c0.81,0.864,1.209,1.992,1.209,3.398
							C270.046,254.471,269.219,256.644,267.538,258.536z"/>
					</g>
				</g>
			</g>
			<rect x="-6.143" y="268.761" fill="#471111" width="76.323" height="9.135"/>
			<circle fill="#471111" cx="-6.143" cy="273.513" r="4.897"/>
		</g>
		<g>
			<path fill="#FFFFFF" d="M140.612,215.966c0,0,1.251-1.943-1.027-3.773c0,0,3.8-3.851,7.337-2.971c0,0,2.912-0.113,2.26,2.344
				l-1.347,3.999"/>
			<g>
				<path fill="#FFFFFF" d="M344.006,182.611H107.722c-2.067,0-3.535,0.257-4.406,0.765c-0.877,0.496-1.597,1.517-2.167,3.04
					l-0.401,1.037l-7.084,17.823h-6.824c-0.665,0-1.279,0.106-1.869,0.262c-3.303,0.168-6.661,0.752-10.05,1.811
					c-4.019,1.252-7.541,2.955-10.576,5.092c-3.56,2.568-6.338,5.615-8.324,9.157c-1.979,3.55-2.969,7.262-2.969,11.15
					c0,5,1.671,9.133,5.021,12.418c3.348,3.287,7.569,4.93,12.667,4.93c2.061,0,4.007-0.288,5.862-0.834l-4.868,11.968H57.764
					c-4.976,0-8.923,0.833-11.832,2.519c-2.236,1.306-4.011,3.137-5.32,5.501c-1.309,2.356-1.953,4.903-1.953,7.656
					c0,4.294,1.522,7.818,4.576,10.599c3.047,2.77,6.905,4.158,11.57,4.158c5.711,0,10.793-2.045,15.24-6.124
					c1.687-1.546,3.05-3.17,4.116-4.873c1.07-1.707,2.536-4.629,4.402-8.767l0.485-1.116h5.875c8.98,0,15.704-1.438,20.161-4.316
					c3.306-2.133,5.965-4.986,7.971-8.537c2.017-3.563,3.021-7.194,3.021-10.901c0-5.779-2.431-9.864-7.317-12.24
					c3.602-1.247,6.473-3.343,8.616-6.28c1.055-1.435,1.811-2.98,2.338-4.601c0.216,2.482,0.981,4.572,2.388,6.206
					c1.664,1.929,3.847,2.89,6.556,2.89h3.808l-7.9,19.415c-0.708,1.77-1.068,3.042-1.068,3.802c0,1.455,0.534,2.611,1.586,3.47
					c1.061,0.867,2.507,1.29,4.33,1.29h6.643c1.966,0,3.499-0.411,4.594-1.247c1.089-0.846,1.643-2.011,1.643-3.513
					c0-2.188-1.566-3.285-4.694-3.285h-3.871l8.128-20c0.229,0.016,0.435,0.068,0.68,0.068h4.731c1.938,0,3.462-0.422,4.566-1.27
					c1.105-0.846,1.659-2.027,1.659-3.525c0-2.168-1.541-3.247-4.652-3.247h-3.745l2.997-7.351l0.396-0.996
					c0.302-0.754,0.443-1.426,0.505-2.053l1.104-2.742l0.408-0.996c0.409-0.96,0.592-1.786,0.592-2.479
					c0-1.004-0.369-1.855-1.09-2.544c-0.724-0.691-1.639-1.038-2.715-1.038c-1.991,0-3.607,0.925-4.833,2.773
					c-1.451-2.188-3.755-3.287-6.906-3.287c-4.111,0-7.794,1.864-11.062,5.595c-2.619,2.999-4.16,6.32-4.673,9.956h-9.705
					c-0.026,1.192-0.36,2.484-1.016,3.873c-0.678,1.441-1.527,2.614-2.541,3.523c-1.921,1.732-4.748,2.597-8.476,2.597l-2.399,0.042
					l6.12-15h0.598c0.272,0,0.497,0.01,0.749,0.017c0.251-0.256,0.492-0.5,0.74-0.744h2.729h0.955c1.655,0,3.036-0.517,4.15-1.534
					c1.129-1.022,1.684-2.27,1.684-3.75c0-2.359-1.375-3.538-4.132-3.538h-0.965h-3.921c-0.08,0-0.158-0.009-0.224-0.009h-0.61
					l5.647-13.841h59.981l-13.988,34.483l-0.403,0.99c-0.402,0.965-0.586,1.818-0.586,2.549c0,0.99,0.365,1.829,1.103,2.517
					c0.348,0.323,0.734,0.561,1.154,0.734c-2.756,0.764-5.296,2.449-7.62,5.108c-3.255,3.728-4.886,7.958-4.886,12.681
					c0,3.128,0.829,5.654,2.49,7.584c1.656,1.936,3.842,2.896,6.551,2.896h4.215c1.711,0,3.498-0.819,5.349-2.47
					c0.76,1.65,2.203,2.47,4.314,2.47h4.726c1.947,0,3.466-0.423,4.58-1.274c1.109-0.84,1.666-2.016,1.666-3.519
					c0-2.164-1.551-3.252-4.655-3.252h-4.055l5.309-13.141l0.411-1c0.395-0.953,0.59-1.781,0.59-2.469
					c0-1.012-0.368-1.86-1.088-2.548c-0.397-0.372-0.845-0.633-1.333-0.804c1.772-0.089,3.481-0.696,5.136-1.883
					c5.07-3.669,7.604-8.786,7.604-15.361c0-3.395-0.893-6.157-2.658-8.288c-1.773-2.125-4.093-3.192-6.943-3.192
					c-0.858,0-1.841,0.171-2.953,0.514l5.424-13.326h163.676h0.999c1.626,0,2.998-0.506,4.145-1.531
					c1.133-1.019,1.689-2.246,1.689-3.676C349.145,183.82,347.432,182.611,344.006,182.611z M62.366,278.841
					c-2.182,1.931-4.481,2.9-6.915,2.9c-1.627,0-3.005-0.519-4.137-1.559c-1.143-1.043-1.698-2.307-1.698-3.802
					c0-3.732,2.613-5.599,7.837-5.599h10.398C66.385,274.219,64.559,276.905,62.366,278.841z M130.87,214.844
					c1.7-2.09,3.45-3.139,5.248-3.139c0.905,0,1.691,0.245,2.339,0.736c0.659,0.497,0.982,1.073,0.982,1.741
					c0,0.564-0.174,1.265-0.518,2.101l-2.586,6.387c-0.665,1.651-2.007,2.478-4.024,2.478h-0.919c-2.043,0-3.065-1.27-3.065-3.803
					C128.326,219.107,129.172,216.935,130.87,214.844z M71.366,240.535c-2.286,0-4.208-0.847-5.742-2.546
					c-1.542-1.699-2.31-3.799-2.31-6.316c0-4.669,2.43-8.869,7.311-12.586c3.214-2.453,7.245-3.996,12.054-4.634
					c0.638,0.243,1.406,0.38,2.325,0.38h4.785l-5.32,13.04C81.04,236.32,76.675,240.535,71.366,240.535z M103.264,240.992
					c1.561,1.059,2.333,2.905,2.333,5.515c0,2.215-0.583,4.417-1.775,6.604c-1.181,2.181-2.729,3.899-4.618,5.156
					c-2.959,1.975-7.292,2.963-13,2.963h-3.236l8.84-21.838h3.314C98.99,239.392,101.699,239.921,103.264,240.992z M163.262,244.257
					l-2.578,6.394c-0.668,1.648-2.009,2.471-4.029,2.471h-0.922c-2.038,0-3.067-1.268-3.067-3.804c0-2.241,0.848-4.404,2.55-6.496
					c1.696-2.091,3.442-3.144,5.236-3.144c0.914,0,1.691,0.252,2.352,0.74c0.652,0.493,0.981,1.073,0.981,1.732
					C163.785,242.722,163.607,243.428,163.262,244.257z M166.816,235.51c-1.29-1.932-3.284-2.963-5.896-3.189
					c0.794-0.438,1.452-1.076,1.954-1.94c1.731,1.756,3.807,2.622,6.249,2.622h0.872
					C168.749,233.383,167.679,234.202,166.816,235.51z M173.949,211.555c1.043,0,1.87,0.356,2.51,1.055
					c0.643,0.698,0.96,1.606,0.96,2.712c0,1.423-0.416,3.041-1.276,4.835c-0.847,1.796-1.83,3.153-2.961,4.058
					c-0.816,0.672-1.811,1.004-2.996,1.004c-1.652,0-3.089-0.795-4.316-2.368l2.479-6.09
					C169.743,213.293,171.614,211.555,173.949,211.555z"/>
				<path fill="#FFFFFF" d="M206.499,201.759c0.994-1.001,1.491-2.214,1.491-3.64c0-1.427-0.497-2.636-1.491-3.636
					c-1.002-0.996-2.215-1.493-3.641-1.493c-1.428,0-2.632,0.497-3.635,1.493c-1.003,1-1.499,2.209-1.499,3.636
					c0,1.425,0.496,2.638,1.499,3.64c1.003,0.995,2.207,1.495,3.635,1.495C204.284,203.253,205.497,202.754,206.499,201.759z"/>
				<path fill="#FFFFFF" d="M213.235,231.56c1.403,0.967,4.106,1.442,8.12,1.442c2.454,0,4.372-0.187,5.74-0.573
					c1.37-0.379,2.689-1.074,3.968-2.08c1.92-1.551,3.482-3.622,4.688-6.225c1.206-2.601,1.808-5.208,1.808-7.842
					c0-3.499-1.148-6.376-3.451-8.637c-2.297-2.264-5.238-3.398-8.804-3.398c-4.6,0-8.59,1.711-11.957,5.126
					c-3.38,3.427-5.065,7.479-5.065,12.15C208.281,225.953,209.936,229.3,213.235,231.56z M219.431,214.808
					c1.504-1.796,3.165-2.697,4.988-2.697c1.308,0,2.361,0.432,3.18,1.293c0.808,0.86,1.208,1.989,1.208,3.399
					c0,2.434-0.828,4.597-2.51,6.495c-1.004,1.159-2.452,1.738-4.32,1.738c-3.197,0-4.794-1.43-4.794-4.282
					C217.183,218.583,217.932,216.602,219.431,214.808z"/>
				<path fill="#FFFFFF" d="M211.031,252.934h-4.436l4.032-9.931c0.54-1.354,0.815-2.596,0.815-3.727
					c0-2.039-0.755-3.73-2.259-5.057c-1.31-1.165-2.961-1.791-4.9-1.932c0.313-0.151,0.615-0.329,0.882-0.534
					c1.098-0.842,1.64-2.01,1.64-3.508c0-2.192-1.544-3.286-4.648-3.286h-4.173l5.273-13.07c0.675-1.624,1.008-2.83,1.008-3.619
					c0-0.962-0.381-1.783-1.133-2.472c-0.747-0.691-1.644-1.038-2.672-1.038c-2.511,0-4.334,1.392-5.463,4.175l-0.404,1.039
					L188.5,224.96c-0.52,1.256-0.777,2.285-0.777,3.101c0,1.526,0.624,2.73,1.867,3.613c0.842,0.602,1.92,0.986,3.185,1.179
					c-0.284-0.047-0.57-0.104-0.905-0.104c-2.309,0-3.945,1.189-4.906,3.576l-7.458,18.378l-0.405,1.005
					c-0.392,0.958-0.588,1.778-0.588,2.467c0,0.937,0.363,1.727,1.106,2.367c0.733,0.639,1.639,0.958,2.693,0.958
					c2.586,0,4.524-1.626,5.836-4.875l4.353-10.702c1.55-3.813,3.591-5.725,6.131-5.725c0.784,0,1.43,0.21,1.936,0.634
					c0.509,0.417,0.745,0.923,0.726,1.51c-0.027,0.517-0.215,1.194-0.562,2.032l-3.247,8.044c-0.691,1.676-1.025,2.936-1.025,3.769
					c0,1.38,0.5,2.526,1.525,3.434c1.021,0.909,2.282,1.359,3.779,1.359h7.716c1.943,0,3.469-0.411,4.588-1.247
					c1.098-0.846,1.659-2.011,1.659-3.513C215.725,254.03,214.167,252.934,211.031,252.934z M195.94,235.25
					c-0.606-1.23-1.505-2.001-2.692-2.32c0.461,0.049,0.941,0.071,1.453,0.071h5.051C198.502,233.51,197.233,234.254,195.94,235.25z
					"/>
				<path fill="#FFFFFF" d="M239.793,252.934h-6.981c-2.561,0-4.371-0.365-5.444-1.09c-1.069-0.721-1.603-1.959-1.603-3.707
					c0-2.093,0.655-3.986,1.975-5.687c1.316-1.698,2.774-2.548,4.372-2.548c1.701,0,2.544,0.857,2.544,2.586
					c0,0.245-0.007,0.505-0.037,0.772c0,0.224,0,0.493,0,0.814c0,2.116,1.137,3.173,3.399,3.173c1.426,0,2.599-0.58,3.505-1.752
					c0.918-1.17,1.373-2.664,1.373-4.485c0-2.61-0.92-4.726-2.737-6.352c-1.819-1.624-4.186-2.431-7.086-2.431
					c-4.281,0-8.019,1.693-11.189,5.093c-3.175,3.394-4.754,7.394-4.754,11.996c0,3.438,0.961,6.253,2.888,8.419
					c1.941,2.164,4.442,3.242,7.516,3.242h10.712c1.914,0,3.437-0.423,4.554-1.274c1.12-0.84,1.679-2.008,1.679-3.485
					C244.476,254.03,242.908,252.934,239.793,252.934z"/>
				<path fill="#FFFFFF" d="M262.946,232.228c-4.605,0-8.597,1.709-11.972,5.126c-3.366,3.416-5.056,7.47-5.056,12.146
					c0,4.433,1.65,7.778,4.948,10.042c1.401,0.962,4.11,1.437,8.116,1.437c2.464,0,4.38-0.186,5.745-0.566
					c1.362-0.38,2.692-1.082,3.97-2.086c1.918-1.554,3.482-3.625,4.686-6.225c1.206-2.594,1.811-5.205,1.811-7.845
					c0-3.497-1.154-6.374-3.457-8.635C269.439,233.357,266.507,232.228,262.946,232.228z M263.94,251.275
					c-1.02,1.155-2.454,1.733-4.327,1.733c-3.193,0-4.8-1.429-4.8-4.281c0-2.163,0.755-4.142,2.254-5.942
					c1.499-1.798,3.162-2.698,4.982-2.698c1.31,0,2.362,0.434,3.18,1.294c0.81,0.861,1.214,1.993,1.214,3.399
					C266.443,247.209,265.607,249.383,263.94,251.275z"/>
			</g>
		</g>
		<rect x="-7.72" y="261.427" fill="#FFFFFF" width="61.246" height="9.795"/>
		<circle fill="#FFFFFF" cx="-5.253" cy="266.323" r="4.897"/>
	</g>
	<g>
		<path fill="#FFFBCC" d="M105.372,290.584l3.061-14.662h4.42c1.06,0,1.87,0.077,2.431,0.23c0.8,0.207,1.483,0.575,2.05,1.104
			c0.567,0.53,0.994,1.192,1.281,1.985c0.286,0.794,0.43,1.684,0.43,2.67c0,1.181-0.178,2.256-0.535,3.227
			c-0.356,0.97-0.823,1.823-1.4,2.561c-0.577,0.736-1.18,1.313-1.81,1.729c-0.63,0.417-1.375,0.726-2.236,0.926
			c-0.653,0.152-1.457,0.229-2.41,0.229H105.372z M107.682,288.924h2.32c1.047,0,1.977-0.097,2.791-0.29
			c0.507-0.119,0.94-0.296,1.3-0.53c0.473-0.3,0.903-0.696,1.29-1.19c0.507-0.653,0.912-1.397,1.215-2.235
			c0.304-0.837,0.455-1.788,0.455-2.855c0-1.187-0.207-2.098-0.62-2.734s-0.94-1.059-1.58-1.266c-0.474-0.153-1.21-0.229-2.21-0.229
			h-2.591L107.682,288.924z"/>
		<path fill="#FFFBCC" d="M119.864,290.584l2.22-10.621h1.811l-2.219,10.621H119.864z M122.505,277.973l0.429-2.051h1.801
			l-0.431,2.051H122.505z"/>
		<path fill="#FFFBCC" d="M124.655,286.954l1.81-0.11c0,0.52,0.081,0.963,0.24,1.33c0.16,0.367,0.455,0.667,0.885,0.9
			c0.431,0.233,0.932,0.35,1.505,0.35c0.8,0,1.4-0.16,1.801-0.479c0.4-0.32,0.6-0.696,0.6-1.131c0-0.313-0.12-0.609-0.36-0.89
			c-0.246-0.28-0.848-0.625-1.805-1.035c-0.958-0.41-1.569-0.698-1.835-0.865c-0.447-0.273-0.784-0.595-1.011-0.965
			c-0.226-0.37-0.34-0.796-0.34-1.275c0-0.841,0.333-1.561,1-2.161c0.666-0.6,1.6-0.899,2.8-0.899c1.333,0,2.348,0.309,3.045,0.926
			c0.696,0.616,1.059,1.428,1.085,2.435l-1.77,0.12c-0.027-0.64-0.254-1.146-0.68-1.521c-0.427-0.373-1.03-0.56-1.811-0.56
			c-0.626,0-1.113,0.144-1.459,0.43c-0.347,0.286-0.521,0.597-0.521,0.931c0,0.333,0.15,0.627,0.45,0.88
			c0.2,0.173,0.717,0.439,1.551,0.8c1.386,0.6,2.26,1.073,2.62,1.42c0.574,0.554,0.86,1.227,0.86,2.021
			c0,0.526-0.162,1.044-0.485,1.55c-0.323,0.507-0.816,0.912-1.48,1.216c-0.664,0.303-1.446,0.455-2.346,0.455
			c-1.227,0-2.271-0.304-3.131-0.91C125.015,289.308,124.608,288.321,124.655,286.954z"/>
		<path fill="#FFFBCC" d="M142.527,286.974l1.76,0.18c-0.253,0.873-0.835,1.704-1.745,2.49c-0.911,0.787-1.996,1.181-3.255,1.181
			c-0.787,0-1.509-0.182-2.166-0.545c-0.656-0.363-1.156-0.892-1.5-1.586c-0.344-0.693-0.515-1.483-0.515-2.37
			c0-1.16,0.269-2.285,0.806-3.375c0.536-1.091,1.231-1.9,2.085-2.431c0.853-0.53,1.776-0.795,2.77-0.795
			c1.268,0,2.279,0.393,3.036,1.18s1.135,1.86,1.135,3.221c0,0.52-0.046,1.054-0.14,1.601h-7.821c-0.026,0.207-0.04,0.394-0.04,0.56
			c0,0.994,0.229,1.752,0.685,2.276c0.458,0.522,1.016,0.784,1.676,0.784c0.62,0,1.23-0.203,1.83-0.609
			C141.727,288.327,142.193,287.74,142.527,286.974z M137.266,284.344h5.96c0.006-0.188,0.01-0.32,0.01-0.4
			c0-0.906-0.227-1.602-0.68-2.086c-0.454-0.482-1.037-0.725-1.75-0.725c-0.773,0-1.479,0.267-2.116,0.8
			S137.58,283.27,137.266,284.344z"/>
		<path fill="#FFFBCC" d="M146.117,290.584l2.22-10.621h1.641l-0.39,1.85c0.713-0.727,1.38-1.256,2-1.59
			c0.62-0.333,1.253-0.5,1.9-0.5c0.86,0,1.535,0.233,2.025,0.7c0.49,0.466,0.736,1.09,0.736,1.87c0,0.394-0.087,1.014-0.26,1.859
			l-1.351,6.432h-1.811l1.411-6.73c0.139-0.653,0.209-1.138,0.209-1.451c0-0.353-0.122-0.64-0.365-0.86
			c-0.243-0.22-0.595-0.329-1.055-0.329c-0.927,0-1.752,0.333-2.476,1c-0.723,0.667-1.255,1.811-1.596,3.431l-1.03,4.94H146.117z
			 M149.578,278.362c0.22-0.887,0.492-1.481,0.815-1.785c0.323-0.304,0.729-0.455,1.215-0.455c0.22,0,0.436,0.027,0.645,0.08
			c0.21,0.054,0.575,0.195,1.095,0.426c0.521,0.229,0.877,0.344,1.07,0.344c0.153,0,0.291-0.055,0.411-0.165
			c0.12-0.109,0.22-0.317,0.3-0.624h1.21c-0.067,0.686-0.289,1.223-0.666,1.609c-0.376,0.387-0.812,0.58-1.306,0.58
			c-0.267,0-0.603-0.086-1.01-0.26c-0.92-0.4-1.487-0.6-1.7-0.6c-0.214,0-0.39,0.067-0.53,0.204c-0.14,0.138-0.24,0.352-0.301,0.646
			H149.578z"/>
		<path fill="#FFFBCC" d="M164.67,289.264c-0.626,0.541-1.23,0.936-1.811,1.186s-1.2,0.375-1.86,0.375
			c-0.98,0-1.771-0.289-2.371-0.865c-0.6-0.577-0.901-1.315-0.901-2.215c0-0.594,0.136-1.119,0.405-1.575
			c0.271-0.458,0.628-0.824,1.076-1.101c0.446-0.277,0.993-0.475,1.64-0.595c0.407-0.081,1.178-0.144,2.315-0.19
			s1.952-0.167,2.445-0.36c0.14-0.493,0.21-0.903,0.21-1.229c0-0.421-0.154-0.751-0.46-0.99c-0.42-0.334-1.034-0.501-1.841-0.501
			c-0.76,0-1.382,0.169-1.865,0.506c-0.483,0.337-0.835,0.814-1.055,1.435l-1.83-0.16c0.373-1.053,0.965-1.859,1.775-2.42
			c0.81-0.56,1.832-0.84,3.066-0.84c1.313,0,2.353,0.313,3.12,0.94c0.586,0.466,0.881,1.073,0.881,1.82
			c0,0.566-0.083,1.224-0.25,1.97l-0.59,2.641c-0.187,0.84-0.28,1.523-0.28,2.05c0,0.334,0.073,0.813,0.22,1.44h-1.83
			C164.78,290.237,164.71,289.797,164.67,289.264z M165.34,285.204c-0.254,0.1-0.525,0.176-0.815,0.229
			c-0.29,0.054-0.775,0.11-1.455,0.17c-1.054,0.093-1.797,0.211-2.23,0.355c-0.433,0.143-0.759,0.371-0.98,0.685
			c-0.22,0.313-0.33,0.66-0.33,1.04c0,0.507,0.175,0.924,0.525,1.25c0.35,0.327,0.849,0.49,1.496,0.49
			c0.6,0,1.176-0.158,1.729-0.476c0.554-0.315,0.991-0.758,1.311-1.324C164.91,287.058,165.16,286.25,165.34,285.204z"/>
		<path fill="#FFFBCC" d="M176.062,289.044c-1.034,1.187-2.114,1.78-3.241,1.78c-1.007,0-1.845-0.372-2.515-1.115
			c-0.67-0.743-1.005-1.821-1.005-3.235c0-1.294,0.265-2.476,0.795-3.546c0.529-1.07,1.193-1.872,1.99-2.405
			c0.796-0.533,1.595-0.8,2.395-0.8c1.32,0,2.317,0.637,2.991,1.91l1.2-5.711h1.8l-3.061,14.662h-1.671L176.062,289.044z
			 M171.101,286.134c0,0.739,0.073,1.323,0.22,1.75c0.146,0.427,0.396,0.781,0.75,1.064c0.354,0.284,0.777,0.426,1.271,0.426
			c0.82,0,1.563-0.427,2.23-1.28c0.894-1.134,1.34-2.533,1.34-4.2c0-0.84-0.221-1.497-0.66-1.971c-0.439-0.473-0.993-0.71-1.66-0.71
			c-0.434,0-0.828,0.097-1.185,0.29c-0.357,0.193-0.71,0.521-1.061,0.985c-0.35,0.463-0.645,1.052-0.885,1.766
			C171.221,284.967,171.101,285.593,171.101,286.134z"/>
		<path fill="#FFFBCC" d="M180.613,286.554c0-2.074,0.609-3.791,1.83-5.15c1.007-1.121,2.327-1.681,3.961-1.681
			c1.28,0,2.312,0.4,3.095,1.2c0.784,0.8,1.175,1.88,1.175,3.24c0,1.221-0.246,2.355-0.739,3.405
			c-0.494,1.051-1.195,1.855-2.105,2.416c-0.91,0.56-1.868,0.84-2.875,0.84c-0.828,0-1.579-0.177-2.256-0.53s-1.193-0.854-1.55-1.5
			C180.791,288.146,180.613,287.4,180.613,286.554z M182.423,286.374c0,0.999,0.24,1.758,0.721,2.274
			c0.479,0.518,1.09,0.775,1.83,0.775c0.387,0,0.771-0.078,1.15-0.235c0.38-0.156,0.732-0.395,1.061-0.715
			c0.326-0.319,0.604-0.686,0.834-1.095c0.23-0.41,0.415-0.852,0.556-1.326c0.207-0.659,0.311-1.292,0.311-1.9
			c0-0.959-0.242-1.705-0.726-2.234c-0.483-0.53-1.092-0.795-1.825-0.795c-0.566,0-1.083,0.135-1.551,0.404
			c-0.466,0.271-0.889,0.666-1.265,1.186c-0.377,0.52-0.654,1.126-0.831,1.815C182.511,285.219,182.423,285.833,182.423,286.374z"/>
		<path fill="#FFFBCC" d="M191.683,290.584l2.221-10.621h1.601l-0.45,2.17c0.546-0.82,1.081-1.427,1.605-1.82
			c0.523-0.393,1.059-0.59,1.605-0.59c0.36,0,0.803,0.13,1.329,0.391l-0.739,1.68c-0.314-0.227-0.657-0.341-1.03-0.341
			c-0.634,0-1.284,0.354-1.95,1.061c-0.667,0.707-1.19,1.978-1.57,3.811l-0.9,4.261H191.683z"/>
		<path fill="#FFFBCC" d="M206.216,290.584l-1.109-10.621h1.74l0.479,4.77l0.189,2.682c0.015,0.199,0.033,0.603,0.061,1.21
			c0.2-0.681,0.37-1.202,0.51-1.565c0.141-0.363,0.364-0.882,0.671-1.556l2.529-5.54h1.972l0.35,5.311
			c0.053,0.807,0.086,1.884,0.1,3.23c0.334-0.894,0.877-2.134,1.63-3.721l2.281-4.82h1.81l-5.19,10.621h-1.881l-0.399-6.23
			c-0.027-0.387-0.047-1.141-0.061-2.261c-0.272,0.714-0.597,1.483-0.97,2.311l-2.811,6.181H206.216z"/>
		<path fill="#FFFBCC" d="M226.789,286.974l1.76,0.18c-0.253,0.873-0.835,1.704-1.744,2.49c-0.911,0.787-1.996,1.181-3.256,1.181
			c-0.787,0-1.509-0.182-2.166-0.545c-0.656-0.363-1.156-0.892-1.5-1.586c-0.344-0.693-0.515-1.483-0.515-2.37
			c0-1.16,0.269-2.285,0.806-3.375c0.535-1.091,1.231-1.9,2.085-2.431s1.776-0.795,2.77-0.795c1.268,0,2.279,0.393,3.036,1.18
			s1.135,1.86,1.135,3.221c0,0.52-0.046,1.054-0.14,1.601h-7.821c-0.026,0.207-0.04,0.394-0.04,0.56
			c0,0.994,0.229,1.752,0.685,2.276c0.458,0.522,1.016,0.784,1.676,0.784c0.62,0,1.23-0.203,1.83-0.609
			C225.989,288.327,226.455,287.74,226.789,286.974z M221.528,284.344h5.961c0.006-0.188,0.01-0.32,0.01-0.4
			c0-0.906-0.227-1.602-0.68-2.086c-0.454-0.482-1.037-0.725-1.75-0.725c-0.773,0-1.479,0.267-2.116,0.8
			S221.842,283.27,221.528,284.344z"/>
		<path fill="#FFFBCC" d="M230.38,290.584l3.061-14.662h1.811l-1.091,5.241c0.573-0.527,1.094-0.899,1.561-1.115
			c0.466-0.217,0.954-0.325,1.461-0.325c0.993,0,1.821,0.37,2.484,1.109c0.663,0.74,0.995,1.818,0.995,3.23
			c0,0.94-0.133,1.801-0.399,2.581s-0.598,1.436-0.99,1.965c-0.394,0.53-0.8,0.954-1.221,1.271c-0.42,0.316-0.85,0.554-1.29,0.71
			c-0.439,0.156-0.863,0.235-1.271,0.235c-0.699,0-1.316-0.186-1.85-0.556c-0.534-0.37-0.95-0.935-1.251-1.694l-0.419,2.01H230.38z
			 M233.06,286.224l-0.01,0.34c0,0.907,0.216,1.597,0.649,2.07s0.974,0.71,1.62,0.71c0.634,0,1.216-0.221,1.745-0.665
			c0.531-0.443,0.966-1.135,1.306-2.075c0.34-0.939,0.51-1.807,0.51-2.6c0-0.894-0.215-1.588-0.646-2.081
			c-0.43-0.493-0.961-0.739-1.595-0.739c-0.653,0-1.254,0.251-1.8,0.755c-0.547,0.503-1.004,1.278-1.37,2.324
			C233.197,285.043,233.06,285.696,233.06,286.224z"/>
	</g>
</g>
<polygon fill="none" stroke="#FFFFFF" stroke-miterlimit="10" stroke-dasharray="4" points="76.943,415.944 -1.262,344.635 
	-33.296,242.975 -10.316,137.563 61.193,58.155 162.051,25.562 265.217,48.052 343.795,119.764 376.201,221.825 353.219,327.235 
	281.34,406.243 180.11,438.435 "/>
<g>
	<polygon fill="none" stroke="#FFFFFF" stroke-width="3" stroke-miterlimit="10" points="138.409,457.115 167.852,477.692 
		196.409,457 196.409,470.069 167.409,490.877 138.409,470.757 	"/>
	<polygon fill="none" stroke="#FFFFFF" stroke-miterlimit="10" points="148.409,487.344 168.712,501.399 188.409,487.265 
		188.409,496.192 168.409,510.405 148.409,496.662 	"/>
</g>
</svg>
